<svg width="12" height="12" viewBox="0 0 12 12" xmlns="http://www.w3.org/2000/svg">
    <g fill="#000" fill-rule="evenodd" opacity=".499">
        <path d="m8.304 2.5 3.168 3a.689.689 0 0 1 0 1 .768.768 0 0 1-1.056 0l-3.168-3a.689.689 0 0 1 0-1 .768.768 0 0 1 1.056 0z"/>
        <path d="m11.472 6.5-3.168 3a.768.768 0 0 1-1.056 0 .689.689 0 0 1 0-1l3.168-3a.768.768 0 0 1 1.056 0 .689.689 0 0 1 0 1z"/>
        <path d="M.707 5.182h9.786a.707.707 0 1 1 0 1.414H.707a.707.707 0 1 1 0-1.414z"/>
    </g>
</svg>
