<?xml version="1.0" encoding="UTF-8"?>
<svg width="60px" height="60px" viewBox="0 0 60 60" version="1.1" xmlns="http://www.w3.org/2000/svg" xmlns:xlink="http://www.w3.org/1999/xlink">
    <title>57780179-2841-4D4F-80CA-EEB2E7090B8E</title>
    <defs>
        <polygon id="path-1" points="0 60.0022371 60 60.0022371 60 0 0 0"></polygon>
    </defs>
    <g id="지속가능경영" stroke="none" stroke-width="1" fill="none" fill-rule="evenodd">
        <g id="FO-ESG-005-05_개요-02" transform="translate(-555.000000, -2474.000000)">
            <g id="1" transform="translate(360.000000, 2218.000000)">
                <g id="icn" transform="translate(195.000000, 256.000000)">
                    <path d="M4,60.0022371 L56,60.0022371 C58.209139,60.0022371 60,58.2113761 60,56.0022371 L60,4 C60,1.790861 58.209139,-4.05812251e-16 56,0 L4,0 C1.790861,4.05812251e-16 -2.705415e-16,1.790861 0,4 L0,56.0022371 C2.705415e-16,58.2113761 1.790861,60.0022371 4,60.0022371 Z" id="Fill-1" fill="#C11F33"></path>
                    <path d="M7.59684816,13.5762295 L9.41673606,8.597917 L9.43500578,8.597917 L9.43500578,13.5762295 L7.59684816,13.5762295 Z M9.39921204,17.1261481 L11.3261083,17.1261481 L11.3261083,15.1638309 L12.1475,15.1638309 L12.1475,13.5762295 L11.3261083,13.5762295 L11.3261083,5.02823728 L9.32725171,5.02823728 L5.81275401,13.9147786 L5.81275401,15.1638309 L9.39921204,15.1638309 L9.39921204,17.1261481 Z" id="Fill-2" fill="#FEFEFE"></path>
                    <polygon id="Fill-3" fill="#FEFEFE" points="26.2980699 32.1723817 15.5372044 25.9588123 15.5372044 46.0596065 26.2980699 49.3063969"></polygon>
                    <polygon id="Fill-4" fill="#FEFEFE" points="27.4814258 32.2135445 27.4814258 49.3132574 38.3123874 46.0571457 38.3123874 25.9597072"></polygon>
                    <g id="Group-34">
                        <path d="M46.7597097,25.4501311 C46.7597097,24.7461876 46.1896198,24.1764706 45.4875405,24.1764706 C44.7832242,24.1764706 44.21388,24.7461876 44.21388,25.4501311 L44.21388,26.8225973 L46.7597097,26.8225973 L46.7597097,25.4501311 Z" id="Fill-5" fill="#FEFEFE"></path>
                        <polygon id="Fill-7" fill="#FEFEFE" points="44.5298716 45.7031978 44.2136936 45.7031978 45.4873541 50.1528069 46.7591504 45.7031978 46.4429724 45.7031978 46.7591504 45.7031978 46.7591504 27.8193783 46.4429724 27.8193783 46.1267943 27.8193783 45.7919738 27.8193783 45.1584991 27.8193783 44.8460496 27.8193783 44.5298716 27.8193783 44.2129479 27.8193783 44.2129479 45.7031978"></polygon>
                        <polygon id="Fill-9" fill="#FEFEFE" points="40.6236935 26.8221126 39.4700911 25.9108636 39.4700911 46.6048645 27.513491 50.4683511 26.9601795 50.4683511 26.850934 50.4683511 26.2979953 50.4683511 14.3943401 47.1428891 14.3943401 25.9108636 13.2403649 26.8221126 13.2403649 47.9523496 26.243559 51.5518574 26.850934 51.5518574 26.9601795 51.5518574 27.5671816 51.5518574 39.5640497 47.7428071 40.6236935 47.4311033"></polygon>
                        <polygon id="Fill-11" fill="#FEFEFE" points="17.1337542 12.2155827 19.1005456 12.2155827 19.1005456 12.8882067 17.9581288 12.8882067 17.9581288 14.2908738 18.7754191 14.2908738 18.7754191 14.9560408 17.9581288 14.9560408 17.9581288 16.4455823 19.1005456 16.4455823 19.1005456 17.1182063 17.1337542 17.1182063"></polygon>
                        <path d="M20.7719641,16.4456569 C21.1116317,16.4456569 21.2421297,16.2431986 21.2421297,15.9467817 L21.2421297,13.3796995 C21.2421297,13.0903668 21.1116317,12.8879084 20.7719641,12.8879084 L20.4244665,12.8879084 L20.4244665,16.4456569 L20.7719641,16.4456569 Z M22.0665043,13.5318229 L22.0665043,15.8021153 C22.0665043,16.5541567 21.7555462,17.1182809 20.8730068,17.1182809 L19.600092,17.1182809 L19.600092,12.2156573 L20.8730068,12.2156573 C21.7555462,12.2156573 22.0665043,12.7723245 22.0665043,13.5318229 L22.0665043,13.5318229 Z" id="Fill-13" fill="#FEFEFE"></path>
                        <path d="M25.0029704,12.2155827 L25.0029704,15.9250817 C25.0029704,16.6842073 24.6774711,17.1759983 23.8389282,17.1759983 C22.97093,17.1759983 22.6092641,16.6842073 22.6092641,15.9250817 L22.6092641,12.2155827 L23.4336387,12.2155827 L23.4336387,16.0044991 C23.4336387,16.2938318 23.5495955,16.4888331 23.8389282,16.4888331 C24.127888,16.4888331 24.2438448,16.2938318 24.2438448,16.0044991 L24.2438448,12.2155827 L25.0029704,12.2155827 Z" id="Fill-15" fill="#FEFEFE"></path>
                        <path d="M25.5458421,15.852674 L25.5458421,13.4809659 C25.5458421,12.7143834 25.907508,12.1577162 26.7755061,12.1577162 C27.6863822,12.1577162 27.9395484,12.6636756 27.9395484,13.3870074 L27.9395484,13.9653 L27.187507,13.9653 L27.187507,13.3217584 C27.187507,13.0178844 27.0864642,12.8445085 26.7896745,12.8445085 C26.4932576,12.8445085 26.3702166,13.0544239 26.3702166,13.3508408 L26.3702166,15.9827991 C26.3702166,16.2795889 26.4932576,16.4891314 26.7896745,16.4891314 C27.0864642,16.4891314 27.187507,16.3012143 27.187507,16.0118815 L27.187507,15.1077168 L27.9395484,15.1077168 L27.9395484,15.9537167 C27.9395484,16.6554231 27.6505885,17.1759237 26.7755061,17.1759237 C25.907508,17.1759237 25.5458421,16.6121724 25.5458421,15.852674" id="Fill-17" fill="#FEFEFE"></path>
                        <path d="M29.2346851,15.5634158 L29.8927679,15.5634158 L29.5672686,13.5966245 L29.5601844,13.5966245 L29.2346851,15.5634158 Z M28.2007681,17.1182063 L29.1261854,12.2155827 L30.0661438,12.2155827 L30.9990182,17.1182063 L30.1530182,17.1182063 L30.0012677,16.2214986 L29.1261854,16.2214986 L28.981519,17.1182063 L28.2007681,17.1182063 Z" id="Fill-19" fill="#FEFEFE"></path>
                        <polygon id="Fill-21" fill="#FEFEFE" points="30.8913759 12.2155827 33.0826239 12.2155827 33.0826239 12.8882067 32.4029157 12.8882067 32.4029157 17.1182063 31.5710841 17.1182063 31.5710841 12.8882067 30.8913759 12.8882067"></polygon>
                        <mask id="mask-2" fill="white">
                            <use xlink:href="#path-1"></use>
                        </mask>
                        <g id="Clip-24"></g>
                        <polygon id="Fill-23" fill="#FEFEFE" mask="url(#mask-2)" points="33.5383602 17.1183555 34.3627347 17.1183555 34.3627347 12.2157318 33.5383602 12.2157318"></polygon>
                        <path d="M36.5832142,15.9828737 L36.5832142,13.3509154 C36.5832142,13.0544985 36.4530891,12.8445831 36.1562993,12.8445831 C35.8673395,12.8445831 35.7368415,13.0544985 35.7368415,13.3509154 L35.7368415,15.9828737 C35.7368415,16.2792906 35.8673395,16.4888331 36.1562993,16.4888331 C36.4530891,16.4888331 36.5832142,16.2792906 36.5832142,15.9828737 M34.9128398,15.8527485 L34.9128398,13.4810405 C34.9128398,12.7144579 35.288674,12.1577907 36.1562993,12.1577907 C37.0313817,12.1577907 37.4075888,12.7144579 37.4075888,13.4810405 L37.4075888,15.8527485 C37.4075888,16.6118741 37.0313817,17.1759983 36.1562993,17.1759983 C35.288674,17.1759983 34.9128398,16.6118741 34.9128398,15.8527485" id="Fill-25" fill="#FEFEFE" mask="url(#mask-2)"></path>
                        <polygon id="Fill-26" fill="#FEFEFE" mask="url(#mask-2)" points="38.6451573 14.0377823 38.6451573 17.1182809 37.9509079 17.1182809 37.9509079 12.2156573 38.7611141 12.2156573 39.6499919 15.0284486 39.6499919 12.2156573 40.3371571 12.2156573 40.3371571 17.1182809 39.6141982 17.1182809"></polygon>
                        <path d="M18.8046507,8.83314898 L18.8046507,6.15793987 C18.8046507,5.86115012 18.6745255,5.65160761 18.3777358,5.65160761 C18.0887759,5.65160761 17.9582779,5.86115012 17.9582779,6.15793987 L17.9582779,8.83314898 C17.9582779,9.1224817 18.0887759,9.33948124 18.3777358,9.33948124 C18.6745255,9.33948124 18.8046507,9.1224817 18.8046507,8.83314898 L18.8046507,8.83314898 Z M18.0742347,10.2578143 L18.0742347,9.92523086 C17.4161519,9.80927406 17.1342762,9.32494003 17.1342762,8.65977306 L17.1342762,6.28769217 C17.1342762,5.52148246 17.5101105,4.96481525 18.3777358,4.96481525 C19.2528181,4.96481525 19.6290252,5.52148246 19.6290252,6.28769217 L19.6290252,8.65977306 C19.6290252,9.19481488 19.4411081,9.61427275 19.0216502,9.81673109 L19.6290252,9.93231503 L19.6290252,10.5471471 L18.0742347,10.2578143 Z" id="Fill-27" fill="#FEFEFE" mask="url(#mask-2)"></path>
                        <path d="M22.5582953,5.02253266 L22.5582953,8.73203167 C22.5582953,9.49115721 22.232796,9.98294826 21.3942531,9.98294826 C20.526255,9.98294826 20.1645891,9.49115721 20.1645891,8.73203167 L20.1645891,5.02253266 L20.9889636,5.02253266 L20.9889636,8.81144902 C20.9889636,9.10078175 21.1049204,9.29578305 21.3942531,9.29578305 C21.683213,9.29578305 21.7991698,9.10078175 21.7991698,8.81144902 L21.7991698,5.02253266 L22.5582953,5.02253266 Z" id="Fill-28" fill="#FEFEFE" mask="url(#mask-2)"></path>
                        <path d="M23.9044382,8.37036577 L24.562521,8.37036577 L24.2370217,6.4035744 L24.2299375,6.4035744 L23.9044382,8.37036577 Z M22.8705211,9.92515629 L23.7959384,5.02253266 L24.7358969,5.02253266 L25.6687712,9.92515629 L24.8227713,9.92515629 L24.6710207,9.02844857 L23.7959384,9.02844857 L23.651272,9.92515629 L22.8705211,9.92515629 Z" id="Fill-29" fill="#FEFEFE" mask="url(#mask-2)"></path>
                        <polygon id="Fill-30" fill="#FEFEFE" mask="url(#mask-2)" points="26.066902 5.02253266 26.8912765 5.02253266 26.8912765 9.25253228 27.8748586 9.25253228 27.8748586 9.92515629 26.066902 9.92515629"></polygon>
                        <polygon id="Fill-31" fill="#FEFEFE" mask="url(#mask-2)" points="28.2584109 9.92530543 29.0827854 9.92530543 29.0827854 5.0226818 28.2584109 5.0226818"></polygon>
                        <polygon id="Fill-32" fill="#FEFEFE" mask="url(#mask-2)" points="29.4665987 5.02253266 31.6578467 5.02253266 31.6578467 5.69515666 30.9781385 5.69515666 30.9781385 9.92515629 30.1463069 9.92515629 30.1463069 5.69515666 29.4665987 5.69515666"></polygon>
                        <polygon id="Fill-33" fill="#FEFEFE" mask="url(#mask-2)" points="33.6615503 8.05959409 33.6615503 9.92496986 32.8371758 9.92496986 32.8371758 8.05959409 31.9188427 5.02234623 32.7793838 5.02234623 33.2786319 6.88063782 33.2857161 6.88063782 33.7845913 5.02234623 34.5727992 5.02234623"></polygon>
                    </g>
                </g>
            </g>
        </g>
    </g>
</svg>