<?xml version="1.0" encoding="UTF-8"?>
<svg width="60px" height="60px" viewBox="0 0 60 60" version="1.1" xmlns="http://www.w3.org/2000/svg" xmlns:xlink="http://www.w3.org/1999/xlink">
    <title>CEFA5C16-FA20-422F-AAEB-5EDA1825EA00</title>
    <g id="지속가능경영" stroke="none" stroke-width="1" fill="none" fill-rule="evenodd">
        <g id="FO-ESG-005-05_개요-02" transform="translate(-1170.000000, -2474.000000)">
            <g id="2" transform="translate(975.000000, 2218.000000)">
                <g id="icn" transform="translate(195.000000, 256.000000)">
                    <path d="M4,60.0022371 L56,60.0022371 C58.209139,60.0022371 60,58.2113761 60,56.0022371 L60,4 C60,1.790861 58.209139,-4.05812251e-16 56,0 L4,0 C1.790861,4.05812251e-16 -2.705415e-16,1.790861 0,4 L0,56.0022371 C2.705415e-16,58.2113761 1.790861,60.0022371 4,60.0022371 Z" id="Fill-1" fill="#E91D2D"></path>
                    <polygon id="Fill-2" fill="#FEFEFE" points="8.37715166 7.89136352 8.39504853 7.89136352 8.39504853 17.1522477 10.4285803 17.1522477 10.4285803 5.05433688 8.80443942 5.05433688 6.93160662 7.24894048 6.93160662 9.3719566 6.94950349 9.3719566"></polygon>
                    <g id="Group-41" transform="translate(7.136905, 4.910118)" fill="#FEFEFE">
                        <path d="M41.7768796,25.3776115 C42.6929756,25.3776115 43.4353228,24.6337729 43.4353228,23.7161855 C43.4353228,22.7982252 42.6929756,22.0547594 41.7768796,22.0547594 C40.8592922,22.0547594 40.1147078,22.7982252 40.1147078,23.7161855 C40.1147078,24.6337729 40.8592922,25.3776115 41.7768796,25.3776115" id="Fill-3"></path>
                        <path d="M43.7157816,26.0180957 C43.6762594,26.0132487 43.63711,26.0080287 43.589385,26.0080287 L41.7769541,26.0080287 L39.9593033,26.0080287 C39.914934,26.0080287 39.8742932,26.0132487 39.8377538,26.0180957 C38.7087596,26.1198842 37.8247288,27.0680454 37.8247288,28.2242577 L37.8247288,28.7760779 L37.8247288,29.0173127 L37.8247288,32.8286002 C37.8247288,33.1828091 38.1118244,33.4721418 38.4678976,33.4721418 C38.8235978,33.4721418 39.1121849,33.1828091 39.1121849,32.8286002 L39.1121849,28.8741378 C39.1121849,28.7257429 39.1535714,28.524776 39.4261258,28.524776 C39.6121787,28.524776 39.6528195,28.7235058 39.6587851,28.8502753 L39.6587851,40.7032227 C39.6587851,41.2125378 40.0715316,41.6282671 40.5845752,41.6282671 C41.0965002,41.6282671 41.5085011,41.2125378 41.5085011,40.7032227 L41.5085011,33.8725842 C41.5111111,33.7972682 41.5398206,33.6015212 41.7758356,33.6015212 L41.7769541,33.6015212 C42.0118505,33.6015212 42.0368316,33.7972682 42.0394416,33.8725842 L42.0394416,40.7032227 C42.0394416,41.2125378 42.4540524,41.6282671 42.9663502,41.6282671 C43.4782753,41.6282671 43.8910218,41.2125378 43.8910218,40.7032227 L43.8910218,28.8502753 C43.8977331,28.7235058 43.9368825,28.524776 44.1244268,28.524776 C44.3954898,28.524776 44.4383677,28.7257429 44.4383677,28.8741378 L44.4383677,32.8286002 C44.4383677,33.1828091 44.7258362,33.4721418 45.0830279,33.4721418 C45.4376096,33.4721418 45.7261966,33.1828091 45.7261966,32.8286002 L45.7261966,29.0173127 L45.7261966,28.7760779 L45.7261966,28.2242577 C45.7261966,27.0680454 44.8425387,26.1198842 43.7157816,26.0180957" id="Fill-5"></path>
                        <path d="M28.6655586,26.1619045 C29.5346753,26.1619045 30.2371274,25.457961 30.2371274,24.5888443 C30.2371274,23.7201004 29.5346753,23.0142926 28.6655586,23.0142926 C27.796069,23.0142926 27.0917526,23.7201004 27.0917526,24.5888443 C27.0917526,25.457961 27.796069,26.1619045 28.6655586,26.1619045" id="Fill-7"></path>
                        <path d="M30.5367135,29.0500491 C30.7425275,28.9907657 30.7995738,29.2640658 30.7995738,29.2640658 L31.8536248,32.8165944 C31.8536248,32.8165944 32.0542189,33.5783299 32.7119288,33.3833286 C33.3752316,33.1887001 33.1410809,32.408322 33.1410809,32.408322 L31.8338637,28.15185 C31.8338637,28.15185 31.3666808,26.9214402 30.3316452,26.9214402 L28.6653721,26.9214402 L26.9987262,26.9214402 C25.9640634,26.9214402 25.495762,28.15185 25.495762,28.15185 L24.1885448,32.408322 C24.1885448,32.408322 23.9555127,33.1887001 24.617324,33.3833286 C25.2761525,33.5783299 25.4760009,32.8165944 25.4760009,32.8165944 L26.5304248,29.2640658 C26.5304248,29.2640658 26.587471,28.9907657 26.7929122,29.0500491 C26.9987262,29.1089596 26.9215459,29.4012752 26.9215459,29.4012752 L25.0863711,36.0585377 L26.7929122,36.0585377 L26.7929122,40.8269348 C26.7929122,41.278085 27.1601708,41.6453437 27.6131854,41.6453437 C28.0654542,41.6453437 28.4315943,41.278085 28.4315943,40.8269348 L28.4315943,36.0585377 L28.6653721,36.0585377 L28.8972857,36.0585377 L28.8972857,40.8269348 C28.8972857,41.278085 29.2623073,41.6453437 29.7160675,41.6453437 C30.1702006,41.6453437 30.5367135,41.278085 30.5367135,40.8269348 L30.5367135,36.0585377 L32.2425089,36.0585377 L30.4088255,29.4012752 C30.4088255,29.4012752 30.3316452,29.1089596 30.5367135,29.0500491" id="Fill-9"></path>
                        <path d="M19.2441246,26.1619045 C20.1128684,26.1619045 20.8164391,25.457961 20.8164391,24.5888443 C20.8164391,23.7201004 20.1128684,23.0142926 19.2441246,23.0142926 C18.374635,23.0142926 17.6710643,23.7201004 17.6710643,24.5888443 C17.6710643,25.457961 18.374635,26.1619045 19.2441246,26.1619045" id="Fill-11"></path>
                        <path d="M22.4119077,28.1518127 C22.4119077,28.1518127 21.9458434,26.9214029 20.9108078,26.9214029 L19.2456533,26.9214029 L17.5775159,26.9214029 C16.5435988,26.9214029 16.0745517,28.1518127 16.0745517,28.1518127 L14.7677074,32.4082848 C14.7677074,32.4082848 14.7345236,32.5208859 14.7289309,32.671145 C14.6416836,32.5592896 14.5115585,32.4824822 14.3579437,32.4824822 C14.1856863,32.4824822 14.0380371,32.5719665 13.9541456,32.7061931 L13.9489256,32.7035831 C13.9105219,32.736394 13.2997913,33.8243745 13.0980787,34.0260872 C12.8844348,34.2408496 12.6939077,34.21736 12.6939077,34.21736 L11.8997341,34.21736 L11.1074248,34.21736 C11.1074248,34.21736 10.9150335,34.2408496 10.702881,34.0260872 C10.4985584,33.8243745 9.89006483,32.736394 9.85128828,32.7035831 L9.84718692,32.7061931 C9.76105823,32.5719665 9.61340906,32.4824822 9.44301595,32.4824822 C9.28119843,32.4824822 9.1447348,32.5686109 9.05860611,32.6923976 L9.05860611,29.0175737 L9.05860611,28.775966 L9.05860611,28.2241459 C9.05860611,27.0679335 8.17457534,26.1201452 7.04595402,26.0179839 C7.00829603,26.0135097 6.96877377,26.0079169 6.9240316,26.0079169 L5.10638081,26.0079169 L3.29394995,26.0079169 C3.24622496,26.0079169 3.20632986,26.0135097 3.16718045,26.0179839 C2.04042339,26.1201452 1.15601977,27.0679335 1.15601977,28.2241459 L1.15601977,28.775966 L1.15601977,29.0175737 L1.15601977,32.8284883 C1.15601977,33.0749431 1.29733047,33.2874685 1.50239876,33.3955954 C1.49345032,33.414238 1.48338334,33.431762 1.47928197,33.4526417 L0.00428165899,41.2709636 C-0.0206993877,41.4033258 0.0661749986,41.530841 0.198537261,41.5558221 C0.21382417,41.558432 0.229111079,41.5599234 0.244025137,41.5599234 C0.358863382,41.5599234 0.461024677,41.478269 0.483022913,41.3615665 L1.95802322,33.5428717 C1.96398885,33.5115522 1.96249744,33.4806055 1.95690467,33.4507774 C2.2369161,33.3806813 2.44459436,33.1290066 2.44459436,32.8284883 L2.44459436,28.8740259 C2.44459436,28.7256311 2.48747227,28.5246641 2.75890812,28.5246641 C2.94607955,28.5246641 2.9848561,28.7237668 2.99305883,28.8501634 L2.99305883,40.7034837 C2.99305883,41.2127987 3.40468682,41.6281553 3.91698471,41.6281553 C4.42890974,41.6281553 4.84240199,41.2127987 4.84240199,40.7034837 L4.84240199,33.8728452 C4.84650336,33.7975292 4.87111155,33.6014094 5.10638081,33.6014094 L5.10712652,33.6014094 C5.34314148,33.6014094 5.37185104,33.7975292 5.37408815,33.8728452 L5.37408815,40.7034837 C5.37408815,41.2127987 5.7868347,41.6281553 6.29838688,41.6281553 C6.81105761,41.6281553 7.22380416,41.2127987 7.22380416,40.7034837 L7.22380416,28.8501634 C7.22902408,28.7237668 7.27152915,28.5246641 7.45720916,28.5246641 C7.72976357,28.5246641 7.77040438,28.7256311 7.77040438,28.8740259 L7.77040438,32.8284883 C7.77040438,33.1826972 8.05936425,33.4720299 8.41506452,33.4720299 C8.67084061,33.4720299 8.88970441,33.3213979 8.99335711,33.105517 C9.0034241,33.1401921 9.01237254,33.1677831 9.01237254,33.1677831 L10.3326395,35.5562695 C10.3326395,35.5562695 10.4131754,35.720697 10.4131754,35.871329 L10.4131754,36.3411218 L9.71706176,38.898137 L10.4131754,38.898137 L10.4131754,41.0002734 L10.4157854,41.0002734 C10.4157854,41.3582108 10.7047452,41.6453064 11.0615641,41.6453064 C11.4176372,41.6453064 11.7047328,41.3582108 11.7047328,41.0002734 L11.7047328,38.9760629 C11.7047328,38.9760629 11.7010043,38.9421335 11.7047328,38.898137 L11.9019712,38.898137 L12.0939897,38.898137 C12.0977182,38.9421335 12.0939897,38.9760629 12.0939897,38.9760629 L12.0939897,41.0002734 C12.0939897,41.3582108 12.3836953,41.6453064 12.7401413,41.6453064 C13.0962144,41.6453064 13.3862928,41.3582108 13.3862928,41.0002734 L13.3862928,38.898137 L14.0846436,38.898137 L13.3862928,36.3265806 L13.3862928,35.871329 C13.3862928,35.720697 13.466083,35.5562695 13.466083,35.5562695 L14.686053,33.3512261 C14.686053,33.3512261 14.7643518,33.1849343 14.8072297,33.0645033 C14.8732244,33.1998484 14.9869441,33.3217708 15.1961137,33.3832913 C15.8545694,33.5786654 16.0544177,32.8165571 16.0544177,32.8165571 L17.1088416,29.2640285 C17.1088416,29.2640285 17.1662608,28.9907284 17.371329,29.0500118 C17.5775159,29.1089223 17.4995899,29.4012379 17.4995899,29.4012379 L15.6651608,36.0585004 L17.371329,36.0585004 L17.371329,40.8272704 C17.371329,41.2784206 17.7400791,41.6453064 18.1919751,41.6453064 C18.6446167,41.6453064 19.0107568,41.2784206 19.0107568,40.8272704 L19.0107568,36.0585004 L19.2456533,36.0585004 L19.4764483,36.0585004 L19.4764483,40.8272704 C19.4764483,41.2784206 19.8407242,41.6453064 20.2956029,41.6453064 C20.749736,41.6453064 21.1151304,41.2784206 21.1151304,40.8272704 L21.1151304,36.0585004 L22.8220443,36.0585004 L20.9887338,29.4012379 C20.9887338,29.4012379 20.9108078,29.1089223 21.1151304,29.0500118 C21.3205715,28.9907284 21.3787364,29.2640285 21.3787364,29.2640285 L22.4320417,32.8165571 C22.4320417,32.8165571 22.6326358,33.5786654 23.2903457,33.3832913 C23.9536484,33.1886628 23.7194977,32.4082848 23.7194977,32.4082848 L22.4119077,28.1518127 Z" id="Fill-13"></path>
                        <path d="M35.5196121,33.3920906 C36.2436896,33.3920906 36.8283206,32.8059681 36.8283206,32.0815178 C36.8283206,31.3578131 36.2436896,30.7735549 35.5196121,30.7735549 C34.7955346,30.7735549 34.2101578,31.3578131 34.2101578,32.0815178 C34.2101578,32.8059681 34.7955346,33.3920906 35.5196121,33.3920906" id="Fill-15"></path>
                        <path d="M38.6229292,37.1147885 C38.6068966,37.0644536 37.7892334,35.0592585 37.6930377,34.7777557 C37.3977394,33.9157231 36.8600876,33.9231802 36.3429426,33.9090118 C35.825052,33.8967077 35.5155853,33.9090118 35.5155853,33.9090118 C35.5155853,33.9090118 35.184866,33.8955892 34.5014293,33.9157231 C33.8194841,33.9373485 33.6039759,34.2867103 32.8515617,36.2229279 C32.7438076,36.5021936 32.3806503,37.4041213 32.3758033,37.4581847 L32.3806503,37.4593033 C32.3165199,37.6125452 32.2639478,37.9372988 32.5715503,38.0789824 C32.9317248,38.2441556 33.1323188,37.8959123 33.1323188,37.8959123 L33.8444651,35.6263656 C33.8444651,35.6263656 33.9678789,35.4742422 33.9678789,35.6312126 L33.9678789,40.9745467 L33.9708617,40.9745467 C33.9708617,41.3466524 34.2702615,41.646425 34.64274,41.646425 C35.0141001,41.646425 35.3142455,41.3466524 35.3142455,40.9745467 L35.3142455,38.8660718 C35.3142455,38.8660718 35.2750961,38.5677906 35.5155853,38.5677906 C35.7560745,38.5677906 35.7187893,38.8660718 35.7187893,38.8660718 L35.7187893,40.9745467 C35.7187893,41.3466524 36.0204261,41.646425 36.3917862,41.646425 C36.7624005,41.646425 37.064783,41.3466524 37.064783,40.9745467 L37.064783,35.6312126 C37.064783,35.4742422 37.1479289,35.5864705 37.1479289,35.5864705 L37.7057147,37.1405153 C37.7057147,37.1405153 37.9476952,37.8351375 38.0226384,37.8657113 C38.2739403,37.9716011 38.5651372,37.851543 38.6713999,37.5972583 C38.7407503,37.4317123 38.7142778,37.2538621 38.6180821,37.1196356 L38.6229292,37.1147885 Z" id="Fill-17"></path>
                        <path d="M5.10638081,25.3776115 C6.02359536,25.3776115 6.7689254,24.6337729 6.7689254,23.7161855 C6.7689254,22.7982252 6.02359536,22.0547594 5.10638081,22.0547594 C4.18991196,22.0547594 3.44756474,22.7982252 3.44756474,23.7161855 C3.44756474,24.6337729 4.18991196,25.3776115 5.10638081,25.3776115" id="Fill-19"></path>
                        <path d="M11.8996223,33.3920906 C12.6236998,33.3920906 13.2083308,32.8059681 13.2083308,32.0815178 C13.2083308,31.3578131 12.6236998,30.7735549 11.8996223,30.7735549 C11.1759176,30.7735549 10.5909137,31.3578131 10.5909137,32.0815178 C10.5909137,32.8059681 11.1759176,33.3920906 11.8996223,33.3920906" id="Fill-21"></path>
                        <polygon id="Fill-23" points="10.812984 1.87999155 10.812984 4.96049018 10.1187346 4.96049018 10.1187346 0.057866544 10.9289408 0.057866544 11.8178187 2.87065783 11.8178187 0.057866544 12.5049839 0.057866544 12.5049839 4.96049018 11.7820249 4.96049018"></polygon>
                        <path d="M14.7184537,3.82508296 L14.7184537,1.19312462 C14.7184537,0.896707722 14.5883286,0.686792359 14.2915388,0.686792359 C14.002579,0.686792359 13.872081,0.896707722 13.872081,1.19312462 L13.872081,3.82508296 C13.872081,4.12149986 14.002579,4.33104237 14.2915388,4.33104237 C14.5883286,4.33104237 14.7184537,4.12149986 14.7184537,3.82508296 M13.0480793,3.69495781 L13.0480793,1.32324977 C13.0480793,0.556667205 13.4239135,0 14.2915388,0 C15.1666212,0 15.5428283,0.556667205 15.5428283,1.32324977 L15.5428283,3.69495781 C15.5428283,4.45408334 15.1666212,5.01820758 14.2915388,5.01820758 C13.4239135,5.01820758 13.0480793,4.45408334 13.0480793,3.69495781" id="Fill-25"></path>
                        <path d="M10.94296,7.98562036 L10.94296,9.91624514 L11.246834,9.91624514 C11.5287096,9.91624514 11.6517506,9.77903581 11.6517506,9.51132847 L11.6517506,8.38308 C11.6517506,8.11574552 11.5287096,7.98562036 11.246834,7.98562036 L10.94296,7.98562036 Z M10.1185855,7.31299636 L11.3407925,7.31299636 C12.1726241,7.31299636 12.4761252,7.72537006 12.4761252,8.41216241 L12.4761252,9.44607947 C12.4761252,10.1332447 12.1726241,10.5527026 11.3407925,10.5527026 L10.94296,10.5527026 L10.94296,12.21562 L10.1185855,12.21562 L10.1185855,7.31299636 Z" id="Fill-27"></path>
                        <path d="M14.6463816,11.0803992 L14.6463816,8.44844086 C14.6463816,8.15202396 14.5162564,7.9421086 14.2194667,7.9421086 C13.9305068,7.9421086 13.8000088,8.15202396 13.8000088,8.44844086 L13.8000088,11.0803992 C13.8000088,11.3768161 13.9305068,11.5863586 14.2194667,11.5863586 C14.5162564,11.5863586 14.6463816,11.3768161 14.6463816,11.0803992 M12.9760071,10.950274 L12.9760071,8.57856601 C12.9760071,7.81198345 13.3518413,7.25531624 14.2194667,7.25531624 C15.094549,7.25531624 15.4707561,7.81198345 15.4707561,8.57856601 L15.4707561,10.950274 C15.4707561,11.7093996 15.094549,12.2735238 14.2194667,12.2735238 C13.3518413,12.2735238 12.9760071,11.7093996 12.9760071,10.950274" id="Fill-29"></path>
                        <polygon id="Fill-31" points="18.508526 7.31310821 17.5756516 12.2157318 16.6793168 12.2157318 15.7464425 7.31310821 16.5853582 7.31310821 17.1491096 10.7332745 17.1561938 10.7332745 17.7348592 7.31310821"></polygon>
                        <polygon id="Fill-33" points="18.9214216 7.31310821 20.888213 7.31310821 20.888213 7.98573222 19.7457962 7.98573222 19.7457962 9.38839935 20.5630865 9.38839935 20.5630865 10.0535663 19.7457962 10.0535663 19.7457962 11.5431078 20.888213 11.5431078 20.888213 12.2157318 18.9214216 12.2157318"></polygon>
                        <path d="M22.2268243,7.98562036 L22.2268243,9.51132847 L22.5016158,9.51132847 C22.7838643,9.51132847 22.9065324,9.36666211 22.9065324,9.1064118 L22.9065324,8.38308 C22.9065324,8.11574552 22.7838643,7.98562036 22.5016158,7.98562036 L22.2268243,7.98562036 Z M22.2268243,9.96658008 L22.2268243,12.21562 L21.4024497,12.21562 L21.4024497,7.31299636 L22.6030314,7.31299636 C23.4344901,7.31299636 23.738364,7.72537006 23.738364,8.41216241 L23.738364,9.0411628 C23.738364,9.56912044 23.5504469,9.88007855 23.0802812,9.98857832 L23.8684892,12.21562 L23.000491,12.21562 L22.2268243,9.96658008 Z" id="Fill-35"></path>
                        <polygon id="Fill-37" points="24.0932813 7.31310821 26.2845292 7.31310821 26.2845292 7.98573222 25.6048211 7.98573222 25.6048211 12.2157318 24.7729895 12.2157318 24.7729895 7.98573222 24.0932813 7.98573222"></polygon>
                        <polygon id="Fill-39" points="28.3457266 10.3501696 28.3457266 12.2155454 27.521352 12.2155454 27.521352 10.3501696 26.6030189 7.31329464 27.4635601 7.31329464 27.9628082 9.17121338 27.9698923 9.17121338 28.4687676 7.31329464 29.2569755 7.31329464"></polygon>
                    </g>
                </g>
            </g>
        </g>
    </g>
</svg>