<?xml version="1.0" encoding="UTF-8"?>
<svg width="60px" height="60px" viewBox="0 0 60 60" version="1.1" xmlns="http://www.w3.org/2000/svg" xmlns:xlink="http://www.w3.org/1999/xlink">
    <title>2719276C-A4F1-4B21-B3C6-C7D8EE18728F</title>
    <defs>
        <polygon id="path-1" points="0 60 60 60 60 0 0 0"></polygon>
    </defs>
    <g id="지속가능경영" stroke="none" stroke-width="1" fill="none" fill-rule="evenodd">
        <g id="FO-ESG-005-05_개요-02" transform="translate(-691.000000, -2474.000000)">
            <g id="1" transform="translate(360.000000, 2218.000000)">
                <g id="Group-2" transform="translate(195.000000, 256.000000)">
                    <g id="icn" transform="translate(136.000000, 0.000000)">
                        <path d="M4,60 L56,60 C58.209139,60 60,58.209139 60,56 L60,4 C60,1.790861 58.209139,-4.05812251e-16 56,0 L4,0 C1.790861,4.05812251e-16 -2.705415e-16,1.790861 0,4 L0,56 C2.705415e-16,58.209139 1.790861,60 4,60 Z" id="Fill-1" fill="#48763C"></path>
                        <polygon id="Fill-2" fill="#FEFEFE" points="7.5734447 5.03304583 7.5734447 17.1252858 5.53984974 17.1252858 5.53984974 7.86884818 5.52195231 7.86884818 4.09575123 9.34901322 4.07710807 9.34901322 4.07710807 7.22682193 5.94999907 5.03304583"></polygon>
                        <g id="Group-23">
                            <path d="M14.2794981,7.65528684 L14.2794981,8.70706154 C14.2794981,9.72341668 13.7269151,10.4008625 12.888719,10.6693055 C13.9047708,10.9008376 14.3865098,11.6140759 14.3865098,12.719912 L14.3865098,14.5035668 C14.3865098,16.1798444 13.4949943,17.2677844 11.4438748,17.2677844 C9.37448498,17.2677844 8.64255486,16.0907362 8.64255486,14.2537657 L8.64255486,12.6662234 L10.4982942,12.6662234 L10.4982942,14.3969353 C10.4982942,15.1101735 10.7473667,15.5732377 11.4438748,15.5732377 C12.0669289,15.5732377 12.3521691,15.1280697 12.3521691,14.4852978 L12.3521691,12.4883799 C12.3521691,11.845608 12.0669289,11.5074443 11.3540148,11.5074443 L10.4982942,11.5074443 L10.4982942,9.95569447 L11.2656463,9.95569447 C11.925241,9.95569447 12.3521691,9.61641231 12.3521691,8.9747589 L12.3521691,7.6728102 C12.3521691,7.01251491 12.1213669,6.58487025 11.4792968,6.58487025 C10.8379724,6.58487025 10.6053058,7.01251491 10.6053058,7.76191837 L10.6053058,8.99228226 L8.74956655,8.99228226 L8.74956655,7.92261135 C8.74956655,6.13895655 9.48149667,4.89032362 11.5855627,4.89032362 C13.4591995,4.89032362 14.2794981,5.942844 14.2794981,7.65528684" id="Fill-3" fill="#FEFEFE"></path>
                            <path d="M39.0845094,39.7505965 C38.8361826,39.6827401 37.7962676,38.2454514 38.6184306,37.2995625 C38.7548985,37.1440893 38.342512,36.6866176 38.4554895,36.6772967 C38.9051623,36.6426228 39.1441675,36.9215053 39.2623651,37.323797 C39.2713138,37.5008948 39.2783982,37.6798568 39.2783982,37.860683 C39.2783982,38.5083018 39.2105371,39.1402615 39.0845094,39.7505965 M36.5479222,44.4252336 C36.4550793,44.399135 36.3599993,44.369308 36.2570891,44.3178564 C35.7518597,44.0605985 35.8122635,44.4718383 35.5639367,44.380866 C35.3137456,44.2884023 35.8443297,43.7116226 35.097485,44.1992941 C34.3539962,44.6858471 34.5549693,44.1239809 34.2302056,43.3003828 C33.9028319,42.4756661 34.6034415,41.5346242 35.1888365,41.3213611 C35.993102,41.030175 36.4927385,40.9708938 36.8700759,40.8776844 C37.9823263,40.5999205 38.2176029,39.939998 38.4193218,40.341544 C38.4573538,40.4168572 38.4942672,40.488442 38.5278249,40.5559256 C38.5927031,40.6759793 38.6672757,40.9190694 38.6710043,41.1588039 C38.1985868,42.3966246 37.4700125,43.5080533 36.5479222,44.4252336 M30.0172263,47.1208491 C29.1122877,47.1208491 28.2397882,46.9888646 27.4142695,46.7480115 C27.295699,46.6510738 27.227838,46.4892623 27.3020377,46.2953868 C27.5887694,45.5482203 28.44188,45.2559157 29.1156435,45.191042 C30.6171629,45.0445168 32.5907269,46.1656393 32.9046776,45.9848131 C33.219374,45.8039869 33.8543597,44.9785246 34.7857715,45.0131984 C35.421503,45.0378057 35.4166558,45.1444373 35.6299334,45.2249702 C34.0728574,46.4128306 32.1283767,47.1208491 30.0172263,47.1208491 M28.7580678,41.0853549 C28.6305487,41.2937711 28.2822946,42.8511135 28.0485095,42.6699145 C27.8136058,42.4879698 28.1432167,40.8635166 28.2110778,40.7401074 C28.5764835,40.0693726 29.3676989,40.1025552 28.7580678,41.0853549 M32.5396447,39.246893 C32.3569418,39.4094502 31.8886258,39.350169 31.6544678,39.1674786 C31.4218013,38.9862796 31.8024945,38.6857725 31.9415724,38.6745874 C32.2532859,38.6469974 32.721229,39.0820988 32.5396447,39.246893 M36.6265963,39.262925 C36.5270419,39.2256413 36.4386734,39.1309405 36.3629822,38.9038825 C36.2876638,38.6764516 36.4789426,38.5467041 36.6657469,38.6380493 C36.8555342,38.7346142 37.1023695,39.0179708 37.1023695,39.1693428 C37.1023695,39.3210877 36.7287608,39.3028187 36.6265963,39.262925 M37.0203397,39.5474001 C37.3316803,39.52242 37.7992505,39.9534202 37.6161748,40.1193329 C37.4342176,40.2833814 36.9673931,40.2233545 36.7332351,40.0399185 C36.5001958,39.8587194 36.880516,39.558958 37.0203397,39.5474001 M27.0865229,43.2396103 C26.9068029,43.9476288 26.6965081,44.2026496 26.5175339,44.4259793 C26.3385596,44.6519189 25.6756092,44.9401223 25.2550197,44.9088039 C24.8336844,44.8774856 24.775145,43.7533804 24.775145,43.175855 C24.775145,42.9760141 24.4925148,43.5680801 24.3452339,42.3649334 C24.2508995,41.594651 23.7564832,42.4454663 23.7218069,41.9316962 C23.6863849,41.4190445 23.4395496,41.521202 23.1796641,41.2009346 C22.92127,40.8806671 22.5991163,41.2322529 22.237812,41.3940644 C21.8787449,41.5536389 22.0267716,41.6379002 21.5159492,41.4768344 C21.502899,41.4727331 21.4961875,41.4690048 21.4835101,41.4645307 C21.0148213,40.3568304 20.7560544,39.1387701 20.7560544,37.860683 C20.7560544,37.5478723 20.7728332,37.2406542 20.8019165,36.9364188 C20.8194411,36.9054733 20.8373385,36.8760191 20.8589646,36.8502933 C21.3489066,36.2709038 21.3377207,36.1351909 21.3377207,36.1351909 L21.8794907,35.9476536 C21.8794907,35.9476536 22.7449058,36.0807566 23.3966703,36.3264566 C23.9332202,36.527416 24.7788736,36.9830235 25.2703071,36.7824369 C25.6256455,36.6359117 25.9038013,36.4416634 25.8706165,36.1456303 C25.8303473,35.7742842 25.5380227,35.6862945 25.1841757,35.9364685 C25.0533008,36.0285594 24.775145,35.3768393 24.5570201,35.4100219 C24.3388952,35.4424587 24.8269729,36.1758302 24.6420328,36.2067757 C24.4563471,36.2384669 24.083484,35.4424587 24.0197245,35.3134569 C23.9570835,35.1855737 23.6688603,34.8660519 23.4104663,35.1098877 C22.8642219,35.6285047 21.9771808,35.5968135 21.7993251,35.7302893 C21.2568094,36.1359366 21.1140029,35.5968135 21.1259345,35.2687164 C21.1479334,35.1934033 21.1699323,35.1177172 21.1941684,35.0435226 C21.3709055,34.8485285 22.0062641,34.7836548 22.224389,34.9290614 C22.4641399,35.0893816 22.6360298,34.8880493 22.7296184,34.7907387 C22.8246984,34.696038 22.7911408,34.5420561 22.7314827,34.4145456 C22.670706,34.2859167 22.8511717,34.1915888 22.9749622,34.1584062 C23.0998714,34.1255965 23.5122579,33.8366474 23.6770633,33.7400825 C23.8433602,33.6446361 24.6994538,33.5406144 25.0831298,33.7326258 C25.4668059,33.9257556 25.8187886,33.7680453 26.0074573,33.5458342 C26.2438524,33.2650875 26.5451257,33.0510787 26.6789836,32.986205 C26.8132143,32.9235683 26.3486269,32.4899582 25.9664423,32.9627162 C25.583512,33.4332372 25.3888775,33.4764864 25.2087847,33.4764864 C25.0290647,33.4764864 23.9600664,33.2099075 23.8280729,32.8721167 C23.6975708,32.5346987 24.1621581,32.2819149 24.5570201,32.0906492 C24.9515092,31.9027391 26.0309476,31.905349 26.3068663,31.8427123 C26.8680251,31.7196759 27.5854136,31.4378107 27.9467179,31.6838835 C28.3065307,31.9254822 26.4377412,32.3508898 27.0518466,32.6827153 C27.2703443,32.8027689 28.2584314,32.1145108 28.596991,31.9381587 C29.3934264,31.5276645 27.8247917,31.3919517 28.0283749,30.5571684 C28.2584314,29.6135166 26.1040288,29.9785246 25.0305561,30.0586846 C26.4705531,29.1359117 28.1808759,28.5993985 30.0172263,28.5993985 C34.3856895,28.5993985 38.0453401,31.6257208 39.0211227,35.6948698 C39.0278342,35.896202 38.9965137,36.0412358 38.9760063,36.1232601 C38.8921121,36.4573225 38.2589907,36.7440346 37.8917206,36.2067757 C37.798132,36.0714357 37.40066,35.6963611 37.414083,36.3380145 C37.4271332,36.9796679 38.0378829,37.0452873 37.4457764,37.4304285 C36.8547885,37.8155697 36.7462854,37.7227331 36.4726039,37.8196709 C36.200041,37.9162358 35.9353083,38.5776496 36.0005593,38.9310996 C36.0665561,39.2845496 36.9107179,40.2494532 36.2843081,40.2099324 C36.1377729,40.1991201 35.0311154,39.4433784 34.8484125,38.9575711 C34.6556423,38.446038 34.4453476,37.9453172 34.2958295,37.5594303 C34.14482,37.1750348 33.7544324,37.0766057 33.42333,37.3029181 C33.0944648,37.5284848 33.5154272,37.7536787 33.2786592,38.2361304 C33.0426369,38.7174637 32.8729842,39.1473454 32.525103,38.7499006 C31.621283,37.7141579 30.3080594,38.2249453 30.1018662,37.0725045 C29.990753,36.4476288 29.4527116,36.5076556 29.0030388,36.1538328 C28.550756,35.8018741 28.2990734,35.6106085 28.2230094,35.8652565 C28.155894,36.088959 29.6383974,37.264143 29.7439177,37.5650229 C29.9012659,38.0120551 29.3002107,38.40689 28.8598594,38.5127759 C28.4217454,38.6179161 28.2286023,38.2659574 27.7971998,37.8166882 C27.3657973,37.3681646 27.1767557,37.0471515 27.1469267,37.399483 C27.1036746,37.9091519 27.5567031,38.657064 27.9963087,38.9366922 C28.371036,39.1741897 28.7908798,39.2815669 28.6693264,39.6667081 C28.5474002,40.0529678 28.6674621,39.834485 28.2476183,40.2494532 C27.8270288,40.6670312 27.7468633,40.8012527 27.7774381,41.3776596 C27.80764,41.9559306 27.6573762,41.9891131 27.5667704,42.4697007 C27.4769105,42.9506612 27.26848,42.5345745 27.0865229,43.2396103 M22.1117843,33.0346739 C22.1330375,33.0096938 22.1520535,32.9891877 22.1598837,32.9787483 C22.3272992,32.7882283 22.659893,32.747589 22.8899495,32.7117966 C23.1207517,32.6722758 23.4279908,32.7882283 23.4649043,32.9414645 C23.5044277,33.0939551 22.8873394,33.3735832 22.7743619,33.4779777 C22.4544455,33.7725194 21.9540633,34.3727878 21.6609929,34.4372887 C21.56554,34.4589133 21.4868659,34.4443726 21.4219877,34.4123086 C21.6143851,33.9324667 21.8448144,33.470521 22.1117843,33.0346739 M22.5868118,32.0906492 C22.7065009,31.9146699 23.1047186,31.4128306 23.1528179,31.3494482 C23.2553552,31.2174637 23.4585656,31.1906194 23.6013721,31.1652665 C23.7423144,31.1380493 23.9302373,31.2174637 23.952982,31.3233496 C23.9772181,31.4299811 23.8981711,31.8412209 23.8288186,31.9120601 C23.6338112,32.1145108 23.1263446,32.4001044 22.8466974,32.3549911 C22.6304368,32.3218085 22.5457969,32.1544045 22.5868118,32.0906492 M52.0250937,37.562413 C50.4445273,35.3451481 43.2937601,26.4928664 30.0019389,26.4928664 C16.7075076,26.4928664 9.55897761,35.3451481 7.97580119,37.562413 C7.90868584,37.6571137 7.85051921,37.739138 7.80316561,37.8088586 C7.85051921,37.8804434 7.90868584,37.9620948 7.97580119,38.0579141 C9.55897761,40.2740604 16.7075076,49.1267151 30.0019389,49.1267151 C43.2937601,49.1267151 50.4445273,40.2740604 52.0250937,38.0579141 C52.0944462,37.9620948 52.1511214,37.8804434 52.1966107,37.8088586 C52.1511214,37.739138 52.0944462,37.6571137 52.0250937,37.562413" id="Fill-5" fill="#FEFEFE"></path>
                            <path d="M19.1352933,8.65605737 L19.1352933,6.28443776 C19.1352933,5.51788377 19.4969705,4.96123732 20.3649956,4.96123732 C21.2759,4.96123732 21.529074,5.46717787 21.529074,6.1904827 L21.529074,6.76875373 L20.7770093,6.76875373 L20.7770093,6.12523613 C20.7770093,5.82137353 20.6759634,5.64800408 20.3791644,5.64800408 C20.0827383,5.64800408 19.9596935,5.85791161 19.9596935,6.15431746 L19.9596935,8.78617767 C19.9596935,9.08295635 20.0827383,9.29249105 20.3791644,9.29249105 C20.6759634,9.29249105 20.7770093,9.10458093 20.7770093,8.815259 L20.7770093,7.91112796 L21.529074,7.91112796 L21.529074,8.75709634 C21.529074,9.4587766 21.2401051,9.9792578 20.3649956,9.9792578 C19.4969705,9.9792578 19.1352933,9.41552744 19.1352933,8.65605737" id="Fill-7" fill="#FEFEFE"></path>
                            <polygon id="Fill-9" fill="#FEFEFE" points="22.0577565 5.01906443 22.8821566 5.01906443 22.8821566 9.24890634 23.8657693 9.24890634 23.8657693 9.92150527 22.0577565 9.92150527"></polygon>
                            <mask id="mask-2" fill="white">
                                <use xlink:href="#path-1"></use>
                            </mask>
                            <g id="Clip-12"></g>
                            <polygon id="Fill-11" fill="#FEFEFE" mask="url(#mask-2)" points="24.3143981 9.92157984 25.1387983 9.92157984 25.1387983 5.01913899 24.3143981 5.01913899"></polygon>
                            <polygon id="Fill-13" fill="#FEFEFE" mask="url(#mask-2)" points="28.0243107 6.73997067 28.0026846 6.73997067 27.4460001 9.92139342 27.0626969 9.92139342 26.4478458 6.73997067 26.4333041 6.73997067 26.4333041 9.92139342 25.7535748 9.92139342 25.7535748 5.01895258 26.7155614 5.01895258 27.2506199 7.78093309 27.2577043 7.78093309 27.7353418 5.01895258 28.7767483 5.01895258 28.7767483 9.92139342 28.0243107 9.92139342"></polygon>
                            <path d="M30.2239788,8.36677272 L30.8820821,8.36677272 L30.5565726,6.40005468 L30.5494882,6.40005468 L30.2239788,8.36677272 Z M29.1900296,9.92150527 L30.1154757,5.01906443 L31.0554634,5.01906443 L31.9883667,9.92150527 L31.1423405,9.92150527 L30.9905852,9.02483098 L30.1154757,9.02483098 L29.9708048,9.92150527 L29.1900296,9.92150527 Z" id="Fill-14" fill="#FEFEFE" mask="url(#mask-2)"></path>
                            <polygon id="Fill-15" fill="#FEFEFE" mask="url(#mask-2)" points="31.8803855 5.01906443 34.0717016 5.01906443 34.0717016 5.69166335 33.3919723 5.69166335 33.3919723 9.92150527 32.5601148 9.92150527 32.5601148 5.69166335 31.8803855 5.69166335"></polygon>
                            <polygon id="Fill-16" fill="#FEFEFE" mask="url(#mask-2)" points="34.5279368 5.01906443 36.4947892 5.01906443 36.4947892 5.69166335 35.3523369 5.69166335 35.3523369 7.09427819 36.1696527 7.09427819 36.1696527 7.75942036 35.3523369 7.75942036 35.3523369 9.24890634 36.4947892 9.24890634 36.4947892 9.92150527 34.5279368 9.92150527"></polygon>
                            <path d="M20.0350491,15.4701481 L20.6931524,15.4701481 L20.3676429,13.5034301 L20.3605585,13.5034301 L20.0350491,15.4701481 Z M19.0010999,17.0248807 L19.926546,12.1224398 L20.8665337,12.1224398 L21.799437,17.0248807 L20.9534108,17.0248807 L20.8016555,16.1282064 L19.926546,16.1282064 L19.7818751,17.0248807 L19.0010999,17.0248807 Z" id="Fill-17" fill="#FEFEFE" mask="url(#mask-2)"></path>
                            <path d="M22.0315442,15.7594328 L22.0315442,13.3878132 C22.0315442,12.6212592 22.3932214,12.0646127 23.2612465,12.0646127 C24.1721509,12.0646127 24.4253249,12.5705533 24.4253249,13.2938581 L24.4253249,13.8721292 L23.6732601,13.8721292 L23.6732601,13.2286116 C23.6732601,12.924749 23.5722142,12.7513795 23.2754153,12.7513795 C22.9789892,12.7513795 22.8559444,12.961287 22.8559444,13.2576929 L22.8559444,15.8895531 C22.8559444,16.1863318 22.9789892,16.3958665 23.2754153,16.3958665 C23.5722142,16.3958665 23.6732601,16.2079564 23.6732601,15.9186344 L23.6732601,15.0145034 L24.4253249,15.0145034 L24.4253249,15.8604718 C24.4253249,16.562152 24.136356,17.0826332 23.2612465,17.0826332 C22.3932214,17.0826332 22.0315442,16.5189029 22.0315442,15.7594328" id="Fill-18" fill="#FEFEFE" mask="url(#mask-2)"></path>
                            <polygon id="Fill-19" fill="#FEFEFE" mask="url(#mask-2)" points="24.7224221 12.1224398 26.9137381 12.1224398 26.9137381 12.7950388 26.2340088 12.7950388 26.2340088 17.0248807 25.4021514 17.0248807 25.4021514 12.7950388 24.7224221 12.7950388"></polygon>
                            <polygon id="Fill-20" fill="#FEFEFE" mask="url(#mask-2)" points="27.3696378 17.0248807 28.1940379 17.0248807 28.1940379 12.1224398 27.3696378 12.1224398"></polygon>
                            <path d="M30.4147728,15.8895904 L30.4147728,13.2577302 C30.4147728,12.9613243 30.2846436,12.7514168 29.9878447,12.7514168 C29.6988758,12.7514168 29.5683738,12.9613243 29.5683738,13.2577302 L29.5683738,15.8895904 C29.5683738,16.1859962 29.6988758,16.3955309 29.9878447,16.3955309 C30.2846436,16.3955309 30.4147728,16.1859962 30.4147728,15.8895904 M28.7443465,15.7594701 L28.7443465,13.3878505 C28.7443465,12.6212965 29.1201924,12.06465 29.9878447,12.06465 C30.8629542,12.06465 31.239173,12.6212965 31.239173,13.3878505 L31.239173,15.7594701 C31.239173,16.5185673 30.8629542,17.0826705 29.9878447,17.0826705 C29.1201924,17.0826705 28.7443465,16.5185673 28.7443465,15.7594701" id="Fill-21" fill="#FEFEFE" mask="url(#mask-2)"></path>
                            <polygon id="Fill-22" fill="#FEFEFE" mask="url(#mask-2)" points="32.4691735 13.9445715 32.4691735 17.0249553 31.7749026 17.0249553 31.7749026 12.1225144 32.585134 12.1225144 33.4740394 14.9352008 33.4740394 12.1225144 34.161226 12.1225144 34.161226 17.0249553 33.4382446 17.0249553"></polygon>
                        </g>
                    </g>
                </g>
            </g>
        </g>
    </g>
</svg>