<?xml version="1.0" encoding="UTF-8"?>
<svg width="60px" height="60px" viewBox="0 0 60 60" version="1.1" xmlns="http://www.w3.org/2000/svg" xmlns:xlink="http://www.w3.org/1999/xlink">
    <title>A2EA5F84-D70F-46FD-A4DA-9ABCEE3F357E</title>
    <defs>
        <polygon id="path-1" points="0 60.0022371 60 60.0022371 60 0 0 0"></polygon>
    </defs>
    <g id="지속가능경영" stroke="none" stroke-width="1" fill="none" fill-rule="evenodd">
        <g id="FO-ESG-005-05_개요-02" transform="translate(-623.000000, -2474.000000)">
            <g id="1" transform="translate(360.000000, 2218.000000)">
                <g id="Group-2" transform="translate(195.000000, 256.000000)">
                    <g id="icn" transform="translate(68.000000, 0.000000)">
                        <path d="M4,60.0022371 L56,60.0022371 C58.209139,60.0022371 60,58.2113761 60,56.0022371 L60,4.00037286 C60,1.79123386 58.209139,0.000372856078 56,0.000372856078 L4,0.000372856078 C1.790861,0.000372856078 -2.705415e-16,1.79123386 0,4.00037286 L0,56.0022371 C2.705415e-16,58.2113761 1.790861,60.0022371 4,60.0022371 Z" id="Fill-1" fill="#F89C25"></path>
                        <polygon id="Fill-2" fill="#FEFEFE" points="4.29914243 7.22397465 4.29914243 9.3466443 4.31666667 9.3466443 5.74395973 7.86565996 5.76222968 7.86565996 5.76222968 17.1266592 7.79615958 17.1266592 7.79615958 5.02822521 6.17199851 5.02822521"></polygon>
                        <polygon id="Fill-3" fill="#FEFEFE" points="8.93799403 7.22397465 8.93799403 9.3466443 8.95626398 9.3466443 10.383557 7.86565996 10.4010813 7.86565996 10.4010813 17.1266592 12.4357569 17.1266592 12.4357569 5.02822521 10.8123415 5.02822521"></polygon>
                        <g id="Group-53">
                            <path d="M9.89724087,45.6800522 L9.99008203,45.6800522 L18.9225951,45.6800522 C19.044519,45.6800522 19.1440716,45.5801268 19.1440716,45.45783 C19.1440716,45.4011559 19.1209545,45.3500746 19.085906,45.3109247 L19.0732289,45.2978747 L14.5829232,39.4880313 L14.539299,39.4399329 C14.4986577,39.395563 14.440865,39.3675988 14.3759881,39.3675988 C14.3200597,39.3675988 14.2704698,39.3910887 14.2305742,39.4246458 L14.2037286,39.4559657 L14.1615958,39.5033184 L9.78090977,45.2516406 L9.71342282,45.3340418 C9.68918717,45.3690902 9.6753915,45.4119687 9.6753915,45.45783 C9.6753915,45.5801268 9.77494407,45.6800522 9.89724087,45.6800522" id="Fill-4" fill="#FEFEFE"></path>
                            <path d="M18.895302,46.4992916 L9.85205071,46.4992916 C9.72975391,46.4992916 9.6305742,46.5984713 9.6305742,46.7207681 L9.6305742,53.7975764 C9.6305742,53.9198732 9.72975391,54.0197987 9.85205071,54.0197987 L12.7629381,54.0197987 L12.7629381,49.5675242 C12.7629381,49.4441089 12.8613721,49.3460477 12.9840418,49.3460477 L15.6861298,49.3460477 C15.8084265,49.3460477 15.9072334,49.4441089 15.9072334,49.5675242 L15.9072334,54.0197987 L18.895302,54.0197987 C19.017226,54.0197987 19.1167785,53.9198732 19.1167785,53.7975764 L19.1167785,46.7207681 C19.1167785,46.5984713 19.017226,46.4992916 18.895302,46.4992916" id="Fill-6" fill="#FEFEFE"></path>
                            <path d="M49.3395227,47.5435869 C49.3395227,47.6614094 49.2418345,47.7568606 49.1202834,47.7568606 L46.4469053,47.7568606 C46.3253542,47.7568606 46.2276659,47.6614094 46.2276659,47.5435869 L46.2276659,45.9175615 C46.2276659,45.8001119 46.3253542,45.7046607 46.4469053,45.7046607 L49.1202834,45.7046607 C49.2418345,45.7046607 49.3395227,45.8001119 49.3395227,45.9175615 L49.3395227,47.5435869 Z M49.3395227,50.5469426 C49.3395227,50.6655108 49.2418345,50.760962 49.1202834,50.760962 L46.4469053,50.760962 C46.3253542,50.760962 46.2276659,50.6655108 46.2276659,50.5469426 L46.2276659,48.9220358 C46.2276659,48.8034676 46.3253542,48.7087621 46.4469053,48.7087621 L49.1202834,48.7087621 C49.2418345,48.7087621 49.3395227,48.8034676 49.3395227,48.9220358 L49.3395227,50.5469426 Z M45.2526473,47.5435869 C45.2526473,47.6614094 45.154959,47.7568606 45.0341536,47.7568606 L42.3600298,47.7568606 C42.2384787,47.7568606 42.1400447,47.6614094 42.1400447,47.5435869 L42.1400447,45.9175615 C42.1400447,45.8001119 42.2384787,45.7046607 42.3600298,45.7046607 L45.0341536,45.7046607 C45.154959,45.7046607 45.2526473,45.8001119 45.2526473,45.9175615 L45.2526473,47.5435869 Z M45.2526473,50.5469426 C45.2526473,50.6655108 45.154959,50.760962 45.0341536,50.760962 L42.3600298,50.760962 C42.2384787,50.760962 42.1400447,50.6655108 42.1400447,50.5469426 L42.1400447,48.9220358 C42.1400447,48.8034676 42.2384787,48.7087621 42.3600298,48.7087621 L45.0341536,48.7087621 C45.154959,48.7087621 45.2526473,48.8034676 45.2526473,48.9220358 L45.2526473,50.5469426 Z M50.1501119,44.646868 L41.1993289,44.646868 C41.0785235,44.646868 40.9808352,44.7404549 40.9808352,44.859396 L40.9808352,53.8974273 C40.9808352,54.014877 41.0785235,54.1099553 41.1993289,54.1099553 L50.1501119,54.1099553 C50.2716629,54.1099553 50.3693512,54.014877 50.3693512,53.8974273 L50.3693512,44.859396 C50.3693512,44.7404549 50.2716629,44.646868 50.1501119,44.646868 L50.1501119,44.646868 Z" id="Fill-8" fill="#FEFEFE"></path>
                            <path d="M28.0663684,30.0907159 C28.0663684,30.1533557 28.0145414,30.2051827 27.9504101,30.2051827 L25.9459359,30.2051827 C25.8818046,30.2051827 25.8307233,30.1533557 25.8307233,30.0907159 L25.8307233,27.8550708 C25.8307233,27.7909396 25.8818046,27.7398583 25.9459359,27.7398583 L27.9504101,27.7398583 C28.0145414,27.7398583 28.0663684,27.7909396 28.0663684,27.8550708 L28.0663684,30.0907159 Z M28.0663684,35.2227069 C28.0663684,35.2860925 28.0145414,35.3375466 27.9504101,35.3375466 L25.9459359,35.3375466 C25.8818046,35.3375466 25.8307233,35.2860925 25.8307233,35.2227069 L25.8307233,32.9870619 C25.8307233,32.9236764 25.8818046,32.8733408 25.9459359,32.8733408 L27.9504101,32.8733408 C28.0145414,32.8733408 28.0663684,32.9236764 28.0663684,32.9870619 L28.0663684,35.2227069 Z M28.0663684,40.3558166 C28.0663684,40.4192021 28.0145414,40.4710291 27.9504101,40.4710291 L25.9459359,40.4710291 C25.8818046,40.4710291 25.8307233,40.4192021 25.8307233,40.3558166 L25.8307233,38.1201715 C25.8307233,38.056786 25.8818046,38.0053318 25.9459359,38.0053318 L27.9504101,38.0053318 C28.0145414,38.0053318 28.0663684,38.056786 28.0663684,38.1201715 L28.0663684,40.3558166 Z M28.0663684,45.4878076 C28.0663684,45.5526846 28.0145414,45.6030201 27.9504101,45.6030201 L25.9459359,45.6030201 C25.8818046,45.6030201 25.8307233,45.5526846 25.8307233,45.4878076 L25.8307233,43.253654 C25.8307233,43.188777 25.8818046,43.1384415 25.9459359,43.1384415 L27.9504101,43.1384415 C28.0145414,43.1384415 28.0663684,43.188777 28.0663684,43.253654 L28.0663684,45.4878076 Z M28.0663684,50.6212901 C28.0663684,50.6843028 28.0145414,50.7361298 27.9504101,50.7361298 L25.9459359,50.7361298 C25.8818046,50.7361298 25.8307233,50.6843028 25.8307233,50.6212901 L25.8307233,48.3860179 C25.8307233,48.3226324 25.8818046,48.2719239 25.9459359,48.2719239 L27.9504101,48.2719239 C28.0145414,48.2719239 28.0663684,48.3226324 28.0663684,48.3860179 L28.0663684,50.6212901 Z M24.1331096,30.0907159 C24.1331096,30.1533557 24.0812826,30.2051827 24.0182699,30.2051827 L22.0126771,30.2051827 C21.9492916,30.2051827 21.8974646,30.1533557 21.8974646,30.0907159 L21.8974646,27.8550708 C21.8974646,27.7909396 21.9492916,27.7398583 22.0126771,27.7398583 L24.0182699,27.7398583 C24.0812826,27.7398583 24.1331096,27.7909396 24.1331096,27.8550708 L24.1331096,30.0907159 Z M24.1331096,35.2227069 C24.1331096,35.2860925 24.0812826,35.3375466 24.0182699,35.3375466 L22.0126771,35.3375466 C21.9492916,35.3375466 21.8974646,35.2860925 21.8974646,35.2227069 L21.8974646,32.9870619 C21.8974646,32.9236764 21.9492916,32.8733408 22.0126771,32.8733408 L24.0182699,32.8733408 C24.0812826,32.8733408 24.1331096,32.9236764 24.1331096,32.9870619 L24.1331096,35.2227069 Z M24.1331096,40.3558166 C24.1331096,40.4192021 24.0812826,40.4710291 24.0182699,40.4710291 L22.0126771,40.4710291 C21.9492916,40.4710291 21.8974646,40.4192021 21.8974646,40.3558166 L21.8974646,38.1201715 C21.8974646,38.056786 21.9492916,38.0053318 22.0126771,38.0053318 L24.0182699,38.0053318 C24.0812826,38.0053318 24.1331096,38.056786 24.1331096,38.1201715 L24.1331096,40.3558166 Z M24.1331096,45.4878076 C24.1331096,45.5526846 24.0812826,45.6030201 24.0182699,45.6030201 L22.0126771,45.6030201 C21.9492916,45.6030201 21.8974646,45.5526846 21.8974646,45.4878076 L21.8974646,43.253654 C21.8974646,43.188777 21.9492916,43.1384415 22.0126771,43.1384415 L24.0182699,43.1384415 C24.0812826,43.1384415 24.1331096,43.188777 24.1331096,43.253654 L24.1331096,45.4878076 Z M24.1331096,50.6212901 C24.1331096,50.6843028 24.0812826,50.7361298 24.0182699,50.7361298 L22.0126771,50.7361298 C21.9492916,50.7361298 21.8974646,50.6843028 21.8974646,50.6212901 L21.8974646,48.3860179 C21.8974646,48.3226324 21.9492916,48.2719239 22.0126771,48.2719239 L24.0182699,48.2719239 C24.0812826,48.2719239 24.1331096,48.3226324 24.1331096,48.3860179 L24.1331096,50.6212901 Z M29.3437733,23.6675242 L20.5846383,23.6675242 C20.4671887,23.6675242 20.3702461,23.7626025 20.3702461,23.8822893 L20.3702461,53.8174124 C20.3702461,53.9352349 20.4671887,54.0314318 20.5846383,54.0314318 L29.3437733,54.0314318 C29.4608501,54.0314318 29.5592841,53.9352349 29.5592841,53.8174124 L29.5592841,23.8822893 C29.5592841,23.7626025 29.4608501,23.6675242 29.3437733,23.6675242 L29.3437733,23.6675242 Z" id="Fill-10" fill="#FEFEFE"></path>
                            <path d="M50.3590604,43.7370992 C50.3590604,43.8377703 50.2788963,43.9175615 50.1793438,43.9175615 L41.1700224,43.9175615 C41.0712155,43.9175615 40.9903057,43.8377703 40.9903057,43.7370992 L40.9903057,41.9354586 C40.9903057,41.8362789 41.0712155,41.755742 41.1700224,41.755742 L50.1793438,41.755742 C50.2788963,41.755742 50.3590604,41.8362789 50.3590604,41.9354586 L50.3590604,43.7370992 Z" id="Fill-12" fill="#FEFEFE"></path>
                            <path d="M38.9279642,38.4668904 C38.9279642,38.5854586 38.8310216,38.6809098 38.7139448,38.6809098 L36.1039523,38.6809098 C35.9846383,38.6809098 35.8884415,38.5854586 35.8884415,38.4668904 L35.8884415,36.8326622 C35.8884415,36.7133482 35.9846383,36.6178971 36.1039523,36.6178971 L38.7139448,36.6178971 C38.8310216,36.6178971 38.9279642,36.7133482 38.9279642,36.8326622 L38.9279642,38.4668904 Z M38.9279642,41.4870246 C38.9279642,41.6048471 38.8310216,41.7002983 38.7139448,41.7002983 L36.1039523,41.7002983 C35.9846383,41.7002983 35.8884415,41.6048471 35.8884415,41.4870246 L35.8884415,39.8527964 C35.8884415,39.7338553 35.9846383,39.638777 36.1039523,39.638777 L38.7139448,39.638777 C38.8310216,39.638777 38.9279642,39.7338553 38.9279642,39.8527964 L38.9279642,41.4870246 Z M38.9279642,44.506786 C38.9279642,44.6242356 38.8310216,44.7200597 38.7139448,44.7200597 L36.1039523,44.7200597 C35.9846383,44.7200597 35.8884415,44.6242356 35.8884415,44.506786 L35.8884415,42.8718121 C35.8884415,42.7532438 35.9846383,42.6577927 36.1039523,42.6577927 L38.7139448,42.6577927 C38.8310216,42.6577927 38.9279642,42.7532438 38.9279642,42.8718121 L38.9279642,44.506786 Z M38.9279642,47.5261745 C38.9279642,47.6447427 38.8310216,47.7401939 38.7139448,47.7401939 L36.1039523,47.7401939 C35.9846383,47.7401939 35.8884415,47.6447427 35.8884415,47.5261745 L35.8884415,45.8919463 C35.8884415,45.7726324 35.9846383,45.6779269 36.1039523,45.6779269 L38.7139448,45.6779269 C38.8310216,45.6779269 38.9279642,45.7726324 38.9279642,45.8919463 L38.9279642,47.5261745 Z M38.9279642,50.545563 C38.9279642,50.6641312 38.8310216,50.7595824 38.7139448,50.7595824 L36.1039523,50.7595824 C35.9846383,50.7595824 35.8884415,50.6641312 35.8884415,50.545563 L35.8884415,48.9113348 C35.8884415,48.7931394 35.9846383,48.6976883 36.1039523,48.6976883 L38.7139448,48.6976883 C38.8310216,48.6976883 38.9279642,48.7931394 38.9279642,48.9113348 L38.9279642,50.545563 Z M34.9443699,37.890082 L34.9443699,37.9687547 L34.9443699,41.4896346 C34.9443699,41.6085757 34.8478001,41.7040268 34.7303505,41.7040268 L32.1203579,41.7040268 C32.001044,41.7040268 31.9048471,41.6085757 31.9048471,41.4896346 L31.9048471,41.0548844 L31.9048471,41.0369873 C31.9059657,41.0082774 31.9115585,40.9814318 31.9212528,40.9568233 C31.9257271,40.9478747 31.9264728,40.944519 31.9343028,40.9318419 C31.9395227,40.9217748 31.946607,40.9124534 31.9533184,40.9035048 C31.9600298,40.8934377 31.9697241,40.8803878 31.9775541,40.8684564 C32.3112603,40.3908277 33.817226,38.5362416 34.4495899,37.7603281 L34.5129754,37.6838926 C34.5588367,37.6287099 34.6281879,37.5929157 34.705742,37.5929157 C34.8254288,37.5929157 34.9212528,37.6805369 34.9443699,37.7931394 L34.9443699,37.890082 Z M34.9372856,44.506786 C34.9372856,44.6242356 34.8418345,44.7200597 34.7232662,44.7200597 L32.112528,44.7200597 C31.9935869,44.7200597 31.8985086,44.6242356 31.8985086,44.506786 L31.8985086,42.8718121 C31.8985086,42.7532438 31.9935869,42.6577927 32.112528,42.6577927 L34.7232662,42.6577927 C34.8418345,42.6577927 34.9372856,42.7532438 34.9372856,42.8718121 L34.9372856,44.506786 Z M34.9372856,47.5261745 C34.9372856,47.6447427 34.8418345,47.7401939 34.7232662,47.7401939 L32.112528,47.7401939 C31.9935869,47.7401939 31.8985086,47.6447427 31.8985086,47.5261745 L31.8985086,45.8919463 C31.8985086,45.7726324 31.9935869,45.6779269 32.112528,45.6779269 L34.7232662,45.6779269 C34.8418345,45.6779269 34.9372856,45.7726324 34.9372856,45.8919463 L34.9372856,47.5261745 Z M34.9372856,50.545563 C34.9372856,50.6641312 34.8418345,50.7595824 34.7232662,50.7595824 L32.112528,50.7595824 C31.9935869,50.7595824 31.8985086,50.6641312 31.8985086,50.545563 L31.8985086,48.9113348 C31.8985086,48.7931394 31.9935869,48.6976883 32.112528,48.6976883 L34.7232662,48.6976883 C34.8418345,48.6976883 34.9372856,48.7931394 34.9372856,48.9113348 L34.9372856,50.545563 Z M36.2993289,35.2510067 L36.3608501,35.1738255 C36.9499627,34.4180462 37.9425056,33.195824 38.4264728,32.6022371 L38.4898583,32.5265474 C38.5357196,32.4713647 38.6050708,32.4355705 38.6826249,32.4355705 C38.8023117,32.4355705 38.8981357,32.5224459 38.9212528,32.6357942 L38.9212528,32.7327368 L38.9212528,32.8114094 L38.9212528,35.3986577 C38.9212528,35.5321402 38.8153617,35.6391499 38.6837435,35.6451156 C38.6796421,35.6451156 38.6762864,35.6473527 38.6725578,35.6473527 C38.6692021,35.6473527 38.6658464,35.6451156 38.661745,35.6451156 L36.6173751,35.6451156 L36.5107383,35.6451156 C36.5066368,35.6451156 36.5032811,35.6473527 36.4995526,35.6473527 C36.4961969,35.6473527 36.4928412,35.6451156 36.4887397,35.6451156 C36.3571216,35.6391499 36.2508576,35.5321402 36.2508576,35.3986577 C36.2508576,35.343475 36.2687547,35.2923937 36.2993289,35.2510067 L36.2993289,35.2510067 Z M39.9238628,29.3203579 C39.89478,29.2241611 39.809396,29.1529456 39.7038777,29.1529456 C39.656525,29.1529456 39.6155108,29.1700969 39.5785981,29.1943326 C39.5733781,29.1980611 39.5677852,29.2006711 39.5621924,29.2051454 L39.4883669,29.2983594 L30.8794929,40.2189411 L30.8399702,40.2722595 C30.7956003,40.3158837 30.7668904,40.3755406 30.7650261,40.4426547 L30.7650261,40.4571961 L30.7650261,53.8624907 C30.7650261,53.9803132 30.861223,54.0757644 30.9801641,54.0757644 L39.7303505,54.0757644 C39.8492916,54.0757644 39.9447427,53.9803132 39.9447427,53.8624907 L39.9447427,29.4098434 C39.9447427,29.3777778 39.936167,29.3472036 39.9238628,29.3203579 L39.9238628,29.3203579 Z" id="Fill-14" fill="#FEFEFE"></path>
                            <path d="M16.3876585,8.86744966 L16.3876585,8.20935869 L17.1546234,8.20935869 L17.1546234,8.88199105 C17.1546234,9.15678598 17.2776659,9.31599553 17.5595451,9.31599553 C17.8194258,9.31599553 17.9350112,9.14224459 17.9350112,8.88199105 L17.9350112,8.69407159 C17.9350112,8.41181954 17.8194258,8.23844146 17.5666294,7.99981357 L17.0822893,7.51547353 C16.6121178,7.05238628 16.3951156,6.77050708 16.3951156,6.20637584 L16.3951156,6.04008203 C16.3951156,5.43269948 16.7497017,4.96252796 17.552088,4.96252796 C18.3764728,4.96252796 18.7019761,5.36744966 18.7019761,6.07624907 L18.7019761,6.4740865 L17.9495526,6.4740865 L17.9495526,6.04753915 C17.9495526,5.7652871 17.8194258,5.62807606 17.5595451,5.62807606 C17.3276286,5.62807606 17.1691648,5.75820283 17.1691648,6.03262491 L17.1691648,6.13404176 C17.1691648,6.40883669 17.3205444,6.56804623 17.5595451,6.79958986 L18.0875093,7.32009694 C18.5360552,7.77572707 18.7523117,8.050522 18.7523117,8.59265474 L18.7523117,8.83128262 C18.7523117,9.50391499 18.3910142,9.98117077 17.552088,9.98117077 C16.7131618,9.98117077 16.3876585,9.51099925 16.3876585,8.86744966" id="Fill-16" fill="#FEFEFE"></path>
                            <path d="M21.5085757,5.02054437 L21.5085757,8.73008949 C21.5085757,9.48922446 21.1830723,9.98102163 20.3441462,9.98102163 C19.4761372,9.98102163 19.1148397,9.48922446 19.1148397,8.73008949 L19.1148397,5.02054437 L19.9392245,5.02054437 L19.9392245,8.80950783 C19.9392245,9.09884415 20.0551827,9.29384787 20.3441462,9.29384787 C20.6331096,9.29384787 20.7490679,9.09884415 20.7490679,8.80950783 L20.7490679,5.02054437 L21.5085757,5.02054437 Z" id="Fill-18" fill="#FEFEFE"></path>
                            <path d="M21.9287845,8.86744966 L21.9287845,8.20935869 L22.6950037,8.20935869 L22.6950037,8.88199105 C22.6950037,9.15678598 22.8180462,9.31599553 23.1006711,9.31599553 C23.3605518,9.31599553 23.4761372,9.14224459 23.4761372,8.88199105 L23.4761372,8.69407159 C23.4761372,8.41181954 23.3605518,8.23844146 23.1070097,7.99981357 L22.6226696,7.51547353 C22.1532438,7.05238628 21.9362416,6.77050708 21.9362416,6.20637584 L21.9362416,6.04008203 C21.9362416,5.43269948 22.290082,4.96252796 23.093214,4.96252796 C23.9175988,4.96252796 24.2423565,5.36744966 24.2423565,6.07624907 L24.2423565,6.4740865 L23.4906786,6.4740865 L23.4906786,6.04753915 C23.4906786,5.7652871 23.3605518,5.62807606 23.1006711,5.62807606 C22.8687547,5.62807606 22.7095451,5.75820283 22.7095451,6.03262491 L22.7095451,6.13404176 C22.7095451,6.40883669 22.8616704,6.56804623 23.1006711,6.79958986 L23.6278896,7.32009694 C24.0764355,7.77572707 24.2934377,8.050522 24.2934377,8.59265474 L24.2934377,8.83128262 C24.2934377,9.50391499 23.9313945,9.98117077 23.093214,9.98117077 C22.2542878,9.98117077 21.9287845,9.51099925 21.9287845,8.86744966" id="Fill-20" fill="#FEFEFE"></path>
                            <polygon id="Fill-22" fill="#FEFEFE" points="24.4892617 5.02054437 26.6805369 5.02054437 26.6805369 5.69317673 26.0004474 5.69317673 26.0004474 9.92322893 25.1686055 9.92322893 25.1686055 5.69317673 24.4892617 5.69317673"></polygon>
                            <path d="M27.5631245,8.36841909 L28.2215884,8.36841909 L27.896085,6.40160328 L27.8886279,6.40160328 L27.5631245,8.36841909 Z M26.5291946,9.92322893 L27.4546234,5.02054437 L28.3945936,5.02054437 L29.3274795,9.92322893 L28.4814691,9.92322893 L28.3300895,9.02651007 L27.4546234,9.02651007 L27.3103281,9.92322893 L26.5291946,9.92322893 Z" id="Fill-24" fill="#FEFEFE"></path>
                            <mask id="mask-2" fill="white">
                                <use xlink:href="#path-1"></use>
                            </mask>
                            <g id="Clip-27"></g>
                            <polygon id="Fill-26" fill="#FEFEFE" mask="url(#mask-2)" points="29.6603281 9.92319165 30.4847129 9.92319165 30.4847129 5.02050708 29.6603281 5.02050708"></polygon>
                            <polygon id="Fill-28" fill="#FEFEFE" mask="url(#mask-2)" points="31.65 6.84276659 31.65 9.9233035 30.9553691 9.9233035 30.9553691 5.02061894 31.7659582 5.02061894 32.6548471 7.83344519 32.6548471 5.02061894 33.341648 5.02061894 33.341648 9.9233035 32.6186801 9.9233035"></polygon>
                            <path d="M34.6444817,8.36841909 L35.3021999,8.36841909 L34.9766965,6.40160328 L34.9699851,6.40160328 L34.6444817,8.36841909 Z M33.6105518,9.92322893 L34.5359806,5.02054437 L35.4759508,5.02054437 L36.4088367,9.92322893 L35.5628262,9.92322893 L35.410701,9.02651007 L34.5359806,9.02651007 L34.3909396,9.92322893 L33.6105518,9.92322893 Z" id="Fill-29" fill="#FEFEFE" mask="url(#mask-2)"></path>
                            <path d="M37.4940716,7.71774795 L37.4940716,9.25055928 L37.8561148,9.25055928 C38.1305369,9.25055928 38.2610365,9.11334825 38.2610365,8.85309471 L38.2610365,8.11521253 C38.2610365,7.85495899 38.137994,7.71774795 37.8486577,7.71774795 L37.4940716,7.71774795 Z M37.4940716,7.08873975 L37.7837808,7.08873975 C38.0511186,7.08873975 38.1741611,6.95115585 38.1741611,6.69090231 L38.1741611,6.09060403 C38.1741611,5.82289336 38.0511186,5.69313945 37.7766965,5.69313945 L37.4940716,5.69313945 L37.4940716,7.08873975 Z M36.6696868,5.02050708 L37.8631991,5.02050708 C38.6875839,5.02050708 38.9623788,5.40380313 38.9623788,6.09806115 L38.9623788,6.59694258 C38.9623788,7.00894855 38.8106264,7.26920209 38.4705817,7.37770321 C38.8829605,7.47166294 39.0854213,7.74683072 39.0854213,8.19500373 L39.0854213,8.84563758 C39.0854213,9.5398956 38.7744594,9.92319165 37.9500746,9.92319165 L36.6696868,9.92319165 L36.6696868,5.02050708 Z" id="Fill-30" fill="#FEFEFE" mask="url(#mask-2)"></path>
                            <polygon id="Fill-31" fill="#FEFEFE" mask="url(#mask-2)" points="39.4253542 5.02054437 40.249739 5.02054437 40.249739 9.25059657 41.2337062 9.25059657 41.2337062 9.92322893 39.4253542 9.92322893"></polygon>
                            <polygon id="Fill-32" fill="#FEFEFE" mask="url(#mask-2)" points="41.5379567 5.02054437 43.5047726 5.02054437 43.5047726 5.69317673 42.3623415 5.69317673 42.3623415 7.0958613 43.1792692 7.0958613 43.1792692 7.76103654 42.3623415 7.76103654 42.3623415 9.25059657 43.5047726 9.25059657 43.5047726 9.92322893 41.5379567 9.92322893"></polygon>
                            <path d="M44.8936614,8.65771812 L44.8936614,6.28598061 C44.8936614,5.51938852 45.2557047,4.96271439 46.1237136,4.96271439 C47.034601,4.96271439 47.2873975,5.46868009 47.2873975,6.19202088 L47.2873975,6.77032066 L46.5357196,6.77032066 L46.5357196,6.12677107 C46.5357196,5.82289336 46.4346756,5.64951529 46.1375093,5.64951529 C45.8410887,5.64951529 45.7180462,5.85943326 45.7180462,6.15585384 L45.7180462,8.78784489 C45.7180462,9.08463833 45.8410887,9.29418345 46.1375093,9.29418345 C46.4346756,9.29418345 46.5357196,9.10626398 46.5357196,8.81692767 L46.5357196,7.91275168 L47.2873975,7.91275168 L47.2873975,8.75876212 C47.2873975,9.46047726 46.998434,9.98098434 46.1237136,9.98098434 C45.2557047,9.98098434 44.8936614,9.41722595 44.8936614,8.65771812" id="Fill-33" fill="#FEFEFE" mask="url(#mask-2)"></path>
                            <polygon id="Fill-34" fill="#FEFEFE" mask="url(#mask-2)" points="47.6711409 9.92319165 48.4955257 9.92319165 48.4955257 5.02050708 47.6711409 5.02050708"></polygon>
                            <polygon id="Fill-35" fill="#FEFEFE" mask="url(#mask-2)" points="48.8071961 5.02054437 50.9984713 5.02054437 50.9984713 5.69317673 50.3183818 5.69317673 50.3183818 9.92322893 49.4865399 9.92322893 49.4865399 5.69317673 48.8071961 5.69317673"></polygon>
                            <polygon id="Fill-36" fill="#FEFEFE" mask="url(#mask-2)" points="51.3240119 9.92319165 52.1483967 9.92319165 52.1483967 5.02050708 51.3240119 5.02050708"></polygon>
                            <polygon id="Fill-37" fill="#FEFEFE" mask="url(#mask-2)" points="52.5758016 5.02054437 54.5426174 5.02054437 54.5426174 5.69317673 53.4001864 5.69317673 53.4001864 7.0958613 54.2171141 7.0958613 54.2171141 7.76103654 53.4001864 7.76103654 53.4001864 9.25059657 54.5426174 9.25059657 54.5426174 9.92322893 52.5758016 9.92322893"></polygon>
                            <path d="M54.7670768,8.86744966 L54.7670768,8.20935869 L55.5340418,8.20935869 L55.5340418,8.88199105 C55.5340418,9.15678598 55.6570843,9.31599553 55.9389635,9.31599553 C56.1988441,9.31599553 56.3144295,9.14224459 56.3144295,8.88199105 L56.3144295,8.69407159 C56.3144295,8.41181954 56.1988441,8.23844146 55.9460477,7.99981357 L55.4617077,7.51547353 C54.9915362,7.05238628 54.7745339,6.77050708 54.7745339,6.20637584 L54.7745339,6.04008203 C54.7745339,5.43269948 55.1291201,4.96252796 55.9315063,4.96252796 C56.7558911,4.96252796 57.0813945,5.36744966 57.0813945,6.07624907 L57.0813945,6.4740865 L56.3289709,6.4740865 L56.3289709,6.04753915 C56.3289709,5.7652871 56.1988441,5.62807606 55.9389635,5.62807606 C55.707047,5.62807606 55.5485831,5.75820283 55.5485831,6.03262491 L55.5485831,6.13404176 C55.5485831,6.40883669 55.6999627,6.56804623 55.9389635,6.79958986 L56.4669277,7.32009694 C56.9154735,7.77572707 57.1317301,8.050522 57.1317301,8.59265474 L57.1317301,8.83128262 C57.1317301,9.50391499 56.7704325,9.98117077 55.9315063,9.98117077 C55.0925802,9.98117077 54.7670768,9.51099925 54.7670768,8.86744966" id="Fill-38" fill="#FEFEFE" mask="url(#mask-2)"></path>
                            <path d="M17.4363162,15.5717375 L18.09478,15.5717375 L17.7692767,13.6049217 L17.7618195,13.6049217 L17.4363162,15.5717375 Z M16.4023863,17.1265474 L17.3278151,12.2238628 L18.2677852,12.2238628 L19.2006711,17.1265474 L18.3546607,17.1265474 L18.2032811,16.2298285 L17.3278151,16.2298285 L17.1835198,17.1265474 L16.4023863,17.1265474 Z" id="Fill-39" fill="#FEFEFE" mask="url(#mask-2)"></path>
                            <polygon id="Fill-40" fill="#FEFEFE" mask="url(#mask-2)" points="20.2210664 14.046085 20.2210664 17.1266219 19.5271812 17.1266219 19.5271812 12.2239374 20.3370246 12.2239374 21.2259135 15.0367636 21.2259135 12.2239374 21.9134601 12.2239374 21.9134601 17.1266219 21.1904922 17.1266219"></polygon>
                            <path d="M23.5410887,16.4539896 C23.8811335,16.4539896 24.0116331,16.2515287 24.0116331,15.9551081 L24.0116331,13.387994 C24.0116331,13.0986577 23.8811335,12.8961969 23.5410887,12.8961969 L23.1935869,12.8961969 L23.1935869,16.4539896 L23.5410887,16.4539896 Z M24.8360179,13.5401193 L24.8360179,15.81044 C24.8360179,16.5624907 24.5250559,17.1266219 23.6421327,17.1266219 L22.3692021,17.1266219 L22.3692021,12.2239374 L23.6421327,12.2239374 C24.5250559,12.2239374 24.8360179,12.7806115 24.8360179,13.5401193 L24.8360179,13.5401193 Z" id="Fill-41" fill="#FEFEFE" mask="url(#mask-2)"></path>
                            <path d="M26.0367636,15.8610365 L26.0367636,13.489299 C26.0367636,12.7227069 26.3988069,12.1660328 27.2668158,12.1660328 C28.1777032,12.1660328 28.4304996,12.6719985 28.4304996,13.3953393 L28.4304996,13.9736391 L27.6788218,13.9736391 L27.6788218,13.3300895 C27.6788218,13.0262118 27.5777778,12.8528337 27.2806115,12.8528337 C26.9841909,12.8528337 26.8611484,13.0627517 26.8611484,13.3591723 L26.8611484,15.9911633 C26.8611484,16.2879567 26.9841909,16.4975019 27.2806115,16.4975019 C27.5777778,16.4975019 27.6788218,16.3095824 27.6788218,16.0202461 L27.6788218,15.1160701 L28.4304996,15.1160701 L28.4304996,15.9620805 C28.4304996,16.6637957 28.1415362,17.1843028 27.2668158,17.1843028 C26.3988069,17.1843028 26.0367636,16.6205444 26.0367636,15.8610365" id="Fill-42" fill="#FEFEFE" mask="url(#mask-2)"></path>
                            <path d="M30.5357942,15.9912006 L30.5357942,13.3592095 C30.5357942,13.062789 30.4052946,12.852871 30.108874,12.852871 C29.8199105,12.852871 29.6894109,13.062789 29.6894109,13.3592095 L29.6894109,15.9912006 C29.6894109,16.2876212 29.8199105,16.4971663 30.108874,16.4971663 C30.4052946,16.4971663 30.5357942,16.2876212 30.5357942,15.9912006 M28.865399,15.8610738 L28.865399,13.4893363 C28.865399,12.7227442 29.240865,12.1660701 30.108874,12.1660701 C30.9835943,12.1660701 31.360179,12.7227442 31.360179,13.4893363 L31.360179,15.8610738 C31.360179,16.6202088 30.9835943,17.18434 30.108874,17.18434 C29.240865,17.18434 28.865399,16.6202088 28.865399,15.8610738" id="Fill-43" fill="#FEFEFE" mask="url(#mask-2)"></path>
                            <polygon id="Fill-44" fill="#FEFEFE" mask="url(#mask-2)" points="34.0866518 13.9448546 34.065399 13.9448546 33.508352 17.1264355 33.1254288 17.1264355 32.5105891 13.9448546 32.4960477 13.9448546 32.4960477 17.1264355 31.8159582 17.1264355 31.8159582 12.2237509 32.7779269 12.2237509 33.3133482 14.9858688 33.3204325 14.9858688 33.7976883 12.2237509 34.8390753 12.2237509 34.8390753 17.1264355 34.0866518 17.1264355"></polygon>
                            <polygon id="Fill-45" fill="#FEFEFE" mask="url(#mask-2)" points="37.566182 13.9448546 37.5441834 13.9448546 36.9878822 17.1264355 36.6042133 17.1264355 35.9893736 13.9448546 35.9748322 13.9448546 35.9748322 17.1264355 35.2954884 17.1264355 35.2954884 12.2237509 36.2574571 12.2237509 36.7921327 14.9858688 36.799217 14.9858688 37.2772185 12.2237509 38.3186055 12.2237509 38.3186055 17.1264355 37.566182 17.1264355"></polygon>
                            <path d="M41.1680089,12.2238628 L41.1680089,15.9334079 C41.1680089,16.6925429 40.8425056,17.18434 40.0043251,17.18434 C39.1363162,17.18434 38.7742729,16.6925429 38.7742729,15.9334079 L38.7742729,12.2238628 L39.5986577,12.2238628 L39.5986577,16.0128262 C39.5986577,16.3021626 39.714616,16.4971663 40.0043251,16.4971663 C40.2932886,16.4971663 40.4092468,16.3021626 40.4092468,16.0128262 L40.4092468,12.2238628 L41.1680089,12.2238628 Z" id="Fill-46" fill="#FEFEFE" mask="url(#mask-2)"></path>
                            <polygon id="Fill-47" fill="#FEFEFE" mask="url(#mask-2)" points="42.3186428 14.046085 42.3186428 17.1266219 41.6247576 17.1266219 41.6247576 12.2239374 42.434601 12.2239374 43.3234899 15.0367636 43.3234899 12.2239374 44.0110365 12.2239374 44.0110365 17.1266219 43.2880686 17.1266219"></polygon>
                            <polygon id="Fill-48" fill="#FEFEFE" mask="url(#mask-2)" points="44.4668158 17.1263982 45.2912006 17.1263982 45.2912006 12.2237136 44.4668158 12.2237136"></polygon>
                            <polygon id="Fill-49" fill="#FEFEFE" mask="url(#mask-2)" points="45.6532066 12.2238628 47.8444817 12.2238628 47.8444817 12.8964952 47.165138 12.8964952 47.165138 17.1265474 46.333296 17.1265474 46.333296 12.8964952 45.6532066 12.8964952"></polygon>
                            <polygon id="Fill-50" fill="#FEFEFE" mask="url(#mask-2)" points="48.2136465 17.1263982 49.0380313 17.1263982 49.0380313 12.2237136 48.2136465 12.2237136"></polygon>
                            <polygon id="Fill-51" fill="#FEFEFE" mask="url(#mask-2)" points="49.5011931 12.2238628 51.4680089 12.2238628 51.4680089 12.8964952 50.3255779 12.8964952 50.3255779 14.2991797 51.1432513 14.2991797 51.1432513 14.964355 50.3255779 14.964355 50.3255779 16.453915 51.4680089 16.453915 51.4680089 17.1265474 49.5011931 17.1265474"></polygon>
                            <path d="M51.8162565,16.0707681 L51.8162565,15.4126771 L52.5824758,15.4126771 L52.5824758,16.0853095 C52.5824758,16.3601044 52.7055183,16.5193139 52.9881432,16.5193139 C53.2480239,16.5193139 53.3636092,16.345563 53.3636092,16.0853095 L53.3636092,15.89739 C53.3636092,15.615138 53.2480239,15.4417599 52.9944817,15.203132 L52.5101417,14.7187919 C52.0407159,14.2557047 51.8237136,13.9738255 51.8237136,13.4096943 L51.8237136,13.2434004 C51.8237136,12.6360179 52.1775541,12.1658464 52.9806861,12.1658464 C53.8050708,12.1658464 54.1298285,12.5707681 54.1298285,13.2795675 L54.1298285,13.6774049 L53.3781506,13.6774049 L53.3781506,13.2508576 C53.3781506,12.9686055 53.2480239,12.8313945 52.9881432,12.8313945 C52.7562267,12.8313945 52.5970172,12.9615213 52.5970172,13.2359433 L52.5970172,13.3373602 C52.5970172,13.6121551 52.7491424,13.7713647 52.9881432,14.0029083 L53.5153617,14.5234154 C53.9639075,14.9790455 54.1809098,15.2538404 54.1809098,15.7959732 L54.1809098,16.034601 C54.1809098,16.7072334 53.8188665,17.1844892 52.9806861,17.1844892 C52.1417599,17.1844892 51.8162565,16.7143177 51.8162565,16.0707681" id="Fill-52" fill="#FEFEFE" mask="url(#mask-2)"></path>
                        </g>
                    </g>
                </g>
            </g>
        </g>
    </g>
</svg>