<?xml version="1.0" encoding="UTF-8"?>
<svg width="60px" height="60px" viewBox="0 0 60 60" version="1.1" xmlns="http://www.w3.org/2000/svg" xmlns:xlink="http://www.w3.org/1999/xlink">
    <title>B7876B85-96B8-477B-BDF2-6F17A3A979A4</title>
    <defs>
        <polygon id="path-1" points="0 60.0018643 60 60.0018643 60 0 0 0"></polygon>
    </defs>
    <g id="지속가능경영" stroke="none" stroke-width="1" fill="none" fill-rule="evenodd">
        <g id="FO-ESG-005-05_개요-02" transform="translate(-1306.000000, -2474.000000)">
            <g id="2" transform="translate(975.000000, 2218.000000)">
                <g id="Group-3" transform="translate(195.000000, 256.000000)">
                    <g id="icn-copy" transform="translate(136.000000, 0.000000)">
                        <path d="M4,60 L56,60 C58.209139,60 60,58.209139 60,56 L60,4 C60,1.790861 58.209139,-4.05812251e-16 56,0 L4,0 C1.790861,4.05812251e-16 -2.705415e-16,1.790861 0,4 L0,56 C2.705415e-16,58.209139 1.790861,60 4,60 Z" id="Fill-1" fill="#DF1A83"></path>
                        <g id="Group-38">
                            <path d="M11.2718584,14.3280844 L11.2718584,7.82592809 C11.2718584,7.09364785 11.5395658,6.5757572 12.2364251,6.5757572 C12.9508085,6.5757572 13.2185158,7.09364785 13.2185158,7.82592809 L13.2185158,14.3280844 C13.2185158,15.0607375 12.9508085,15.5775096 12.2364251,15.5775096 C11.5395658,15.5775096 11.2718584,15.0607375 11.2718584,14.3280844 M15.2550304,14.0066865 L15.2550304,8.14732603 C15.2550304,6.2539864 14.3087334,4.87891028 12.2364251,4.87891028 C10.1827593,4.87891028 9.23497098,6.2539864 9.23497098,8.14732603 L9.23497098,14.0066865 C9.23497098,15.8813835 10.1827593,17.2747294 12.2364251,17.2747294 C14.3087334,17.2747294 15.2550304,15.8813835 15.2550304,14.0066865" id="Fill-3" fill="#FEFEFE"></path>
                            <path d="M19.9745094,5.68934018 L19.9745094,7.21504828 L20.2493009,7.21504828 C20.5315494,7.21504828 20.6542176,7.07038192 20.6542176,6.81013162 L20.6542176,6.08679982 C20.6542176,5.81946533 20.5315494,5.68934018 20.2493009,5.68934018 L19.9745094,5.68934018 Z M19.9745094,7.6702999 L19.9745094,9.9193398 L19.1501348,9.9193398 L19.1501348,5.01671617 L20.3507165,5.01671617 C21.1821752,5.01671617 21.4860491,5.42908987 21.4860491,6.11588223 L21.4860491,6.74488261 C21.4860491,7.27284026 21.298132,7.58379836 20.8279663,7.69229813 L21.6161743,9.9193398 L20.7481761,9.9193398 L19.9745094,7.6702999 Z" id="Fill-5" fill="#FEFEFE"></path>
                            <polygon id="Fill-7" fill="#FEFEFE" points="22.0073327 5.01682803 23.9741241 5.01682803 23.9741241 5.68945203 22.8317073 5.68945203 22.8317073 7.09211916 23.6489977 7.09211916 23.6489977 7.75728614 22.8317073 7.75728614 22.8317073 9.24682766 23.9741241 9.24682766 23.9741241 9.91945166 22.0073327 9.91945166"></polygon>
                            <path d="M25.4937175,9.24693951 C25.8333851,9.24693951 25.9638831,9.04448118 25.9638831,8.74806428 L25.9638831,6.18098209 C25.9638831,5.89164937 25.8333851,5.68919104 25.4937175,5.68919104 L25.1462199,5.68919104 L25.1462199,9.24693951 L25.4937175,9.24693951 Z M26.7882577,6.33310548 L26.7882577,8.60339792 C26.7882577,9.35543928 26.4772996,9.91956352 25.5947602,9.91956352 L24.3218454,9.91956352 L24.3218454,5.01693988 L25.5947602,5.01693988 C26.4772996,5.01693988 26.7882577,5.57360709 26.7882577,6.33310548 L26.7882577,6.33310548 Z" id="Fill-9" fill="#FEFEFE"></path>
                            <path d="M29.7247238,5.01682803 L29.7247238,8.72632704 C29.7247238,9.48545258 29.3992245,9.97724363 28.5606816,9.97724363 C27.6926834,9.97724363 27.3310175,9.48545258 27.3310175,8.72632704 L27.3310175,5.01682803 L28.1553921,5.01682803 L28.1553921,8.8057444 C28.1553921,9.09507712 28.2713489,9.29007842 28.5606816,9.29007842 C28.8496414,9.29007842 28.9655982,9.09507712 28.9655982,8.8057444 L28.9655982,5.01682803 L29.7247238,5.01682803 Z" id="Fill-11" fill="#FEFEFE"></path>
                            <path d="M30.2675955,8.65395658 L30.2675955,6.28224854 C30.2675955,5.51566597 30.6292614,4.95899877 31.4972595,4.95899877 C32.4081356,4.95899877 32.6613017,5.46495818 32.6613017,6.18828998 L32.6613017,6.76658257 L31.9092604,6.76658257 L31.9092604,6.12304098 C31.9092604,5.81916705 31.8082176,5.64579113 31.5114279,5.64579113 C31.215011,5.64579113 31.09197,5.85570649 31.09197,6.15212339 L31.09197,8.78408173 C31.09197,9.08087148 31.215011,9.29041399 31.5114279,9.29041399 C31.8082176,9.29041399 31.9092604,9.10249686 31.9092604,8.81316414 L31.9092604,7.90899939 L32.6613017,7.90899939 L32.6613017,8.75499932 C32.6613017,9.45670573 32.3723419,9.97720635 31.4972595,9.97720635 C30.6292614,9.97720635 30.2675955,9.41345497 30.2675955,8.65395658" id="Fill-13" fill="#FEFEFE"></path>
                            <polygon id="Fill-15" fill="#FEFEFE" points="33.1826972 5.01682803 35.1494886 5.01682803 35.1494886 5.68945203 34.0070717 5.68945203 34.0070717 7.09211916 34.8243621 7.09211916 34.8243621 7.75728614 34.0070717 7.75728614 34.0070717 9.24682766 35.1494886 9.24682766 35.1494886 9.91945166 33.1826972 9.91945166"></polygon>
                            <path d="M36.8351127,9.24693951 C37.1747803,9.24693951 37.3052783,9.04448118 37.3052783,8.74806428 L37.3052783,6.18098209 C37.3052783,5.89164937 37.1747803,5.68919104 36.8351127,5.68919104 L36.4876151,5.68919104 L36.4876151,9.24693951 L36.8351127,9.24693951 Z M38.1296529,6.33310548 L38.1296529,8.60339792 C38.1296529,9.35543928 37.8186948,9.91956352 36.9361554,9.91956352 L35.6632406,9.91956352 L35.6632406,5.01693988 L36.9361554,5.01693988 C37.8186948,5.01693988 38.1296529,5.57360709 38.1296529,6.33310548 L38.1296529,6.33310548 Z" id="Fill-17" fill="#FEFEFE"></path>
                            <mask id="mask-2" fill="white">
                                <use xlink:href="#path-1"></use>
                            </mask>
                            <g id="Clip-20"></g>
                            <polygon id="Fill-19" fill="#FEFEFE" mask="url(#mask-2)" points="19.1477859 17.0482594 19.9721604 17.0482594 19.9721604 12.1456358 19.1477859 12.1456358"></polygon>
                            <polygon id="Fill-21" fill="#FEFEFE" mask="url(#mask-2)" points="21.2023092 13.9679845 21.2023092 17.0484831 20.5080598 17.0484831 20.5080598 12.1458595 21.318266 12.1458595 22.2071438 14.9586508 22.2071438 12.1458595 22.894309 12.1458595 22.894309 17.0484831 22.1713501 17.0484831"></polygon>
                            <polygon id="Fill-22" fill="#FEFEFE" mask="url(#mask-2)" points="23.364773 12.1458222 25.3315644 12.1458222 25.3315644 12.8184462 24.1891475 12.8184462 24.1891475 14.2211133 25.0064379 14.2211133 25.0064379 14.8862803 24.1891475 14.8862803 24.1891475 16.3758218 25.3315644 16.3758218 25.3315644 17.0484458 23.364773 17.0484458"></polygon>
                            <path d="M27.306633,15.9564385 L27.306633,13.2812294 C27.306633,12.9844397 27.1765079,12.7748972 26.8797181,12.7748972 C26.5907583,12.7748972 26.4602603,12.9844397 26.4602603,13.2812294 L26.4602603,15.9564385 C26.4602603,16.2457712 26.5907583,16.4627708 26.8797181,16.4627708 C27.1765079,16.4627708 27.306633,16.2457712 27.306633,15.9564385 L27.306633,15.9564385 Z M26.576217,17.3811039 L26.576217,17.0485204 C25.9181343,16.9325636 25.6362586,16.4482296 25.6362586,15.7830626 L25.6362586,13.4109817 C25.6362586,12.644772 26.0120928,12.0881048 26.8797181,12.0881048 C27.7548005,12.0881048 28.1310076,12.644772 28.1310076,13.4109817 L28.1310076,15.7830626 C28.1310076,16.3181044 27.9430904,16.7375623 27.5236326,16.9400206 L28.1310076,17.0556046 L28.1310076,17.6704366 L26.576217,17.3811039 Z" id="Fill-23" fill="#FEFEFE" mask="url(#mask-2)"></path>
                            <path d="M30.9882055,12.1458222 L30.9882055,15.8553212 C30.9882055,16.6144468 30.6627062,17.1062378 29.8241633,17.1062378 C28.9561651,17.1062378 28.5944992,16.6144468 28.5944992,15.8553212 L28.5944992,12.1458222 L29.4188737,12.1458222 L29.4188737,15.9347386 C29.4188737,16.2240713 29.5348305,16.4190726 29.8241633,16.4190726 C30.1131231,16.4190726 30.2290799,16.2240713 30.2290799,15.9347386 L30.2290799,12.1458222 L30.9882055,12.1458222 Z" id="Fill-24" fill="#FEFEFE" mask="url(#mask-2)"></path>
                            <path d="M32.2833422,15.493618 L32.941425,15.493618 L32.6159257,13.5268267 L32.6088416,13.5268267 L32.2833422,15.493618 Z M31.2494252,17.0484085 L32.1748425,12.1457849 L33.114801,12.1457849 L34.0476753,17.0484085 L33.2016753,17.0484085 L33.0499248,16.1517008 L32.1748425,16.1517008 L32.0301761,17.0484085 L31.2494252,17.0484085 Z" id="Fill-25" fill="#FEFEFE" mask="url(#mask-2)"></path>
                            <polygon id="Fill-26" fill="#FEFEFE" mask="url(#mask-2)" points="34.3882751 12.1458222 35.2126496 12.1458222 35.2126496 16.3758218 36.1962317 16.3758218 36.1962317 17.0484458 34.3882751 17.0484458"></polygon>
                            <polygon id="Fill-27" fill="#FEFEFE" mask="url(#mask-2)" points="36.5651682 17.0482594 37.3895428 17.0482594 37.3895428 12.1456358 36.5651682 12.1456358"></polygon>
                            <polygon id="Fill-28" fill="#FEFEFE" mask="url(#mask-2)" points="37.76616 12.1458222 39.9574079 12.1458222 39.9574079 12.8184462 39.2776998 12.8184462 39.2776998 17.0484458 38.4458682 17.0484458 38.4458682 12.8184462 37.76616 12.8184462"></polygon>
                            <polygon id="Fill-29" fill="#FEFEFE" mask="url(#mask-2)" points="40.3410348 17.0482594 41.1654093 17.0482594 41.1654093 12.1456358 40.3410348 12.1456358"></polygon>
                            <polygon id="Fill-30" fill="#FEFEFE" mask="url(#mask-2)" points="41.635575 12.1458222 43.6023664 12.1458222 43.6023664 12.8184462 42.4599495 12.8184462 42.4599495 14.2211133 43.2772399 14.2211133 43.2772399 14.8862803 42.4599495 14.8862803 42.4599495 16.3758218 43.6023664 16.3758218 43.6023664 17.0484458 41.635575 17.0484458"></polygon>
                            <path d="M43.9287605,15.9926424 L43.9287605,15.3345596 L44.6953431,15.3345596 L44.6953431,16.0071836 C44.6953431,16.2819751 44.8183841,16.4411827 45.1006326,16.4411827 C45.3605101,16.4411827 45.476094,16.2674339 45.476094,16.0071836 L45.476094,15.8192665 C45.476094,15.5370179 45.3605101,15.363642 45.1073439,15.1250171 L44.6230099,14.6406831 C44.1532171,14.1776016 43.9362175,13.8957259 43.9362175,13.3316016 L43.9362175,13.1653099 C43.9362175,12.5579349 44.2904264,12.0877692 45.0931756,12.0877692 C45.9175501,12.0877692 46.2426766,12.4926859 46.2426766,13.2014765 L46.2426766,13.599309 L45.4906352,13.599309 L45.4906352,13.1727669 C45.4906352,12.8905184 45.3605101,12.7533091 45.1006326,12.7533091 C44.868719,12.7533091 44.7098843,12.8834342 44.7098843,13.1578529 L44.7098843,13.2592685 C44.7098843,13.53406 44.8616348,13.6932675 45.1006326,13.9248083 L45.6282174,14.4453089 C46.0767577,14.9009334 46.2933844,15.1757249 46.2933844,15.7178509 L46.2933844,15.9564758 C46.2933844,16.6290998 45.9317185,17.1063497 45.0931756,17.1063497 C44.2542598,17.1063497 43.9287605,16.636184 43.9287605,15.9926424" id="Fill-31" fill="#FEFEFE" mask="url(#mask-2)"></path>
                            <polygon id="Fill-32" fill="#FEFEFE" mask="url(#mask-2)" points="19.7880837 32.7760281 14.1434857 38.4202533 19.7880837 44.0644784"></polygon>
                            <polygon id="Fill-33" fill="#FEFEFE" mask="url(#mask-2)" points="40.2120655 44.0645903 45.8562906 38.4203651 40.2120655 32.77614"></polygon>
                            <polygon id="Fill-34" fill="#FEFEFE" mask="url(#mask-2)" points="35.6528753 28.2329824 30.009023 22.5883844 24.3640521 28.2329824"></polygon>
                            <polygon id="Fill-35" fill="#FEFEFE" mask="url(#mask-2)" points="24.3642386 48.628292 30.0080909 54.27289 35.6530617 48.628292"></polygon>
                            <polygon id="Fill-36" fill="#FEFEFE" mask="url(#mask-2)" points="23.8729322 36.5521184 36.1274406 36.5521184 36.1274406 33.1509675 23.8729322 33.1509675"></polygon>
                            <polygon id="Fill-37" fill="#FEFEFE" mask="url(#mask-2)" points="23.8729322 43.7067648 36.1274406 43.7067648 36.1274406 40.1508806 23.8729322 40.1508806"></polygon>
                            <polygon id="Fill-2" fill="#FEFEFE" mask="url(#mask-2)" points="5.7886678 7.86183368 5.7886678 17.1316663 7.82480954 17.1316663 7.82480954 5.02182424 6.19917724 5.02182424 4.32410733 7.21866494 4.32410733 9.34466387 4.3412585 9.34466387 5.77002523 7.86183368"></polygon>
                        </g>
                    </g>
                </g>
            </g>
        </g>
    </g>
</svg>